<svg width="102" height="103" viewBox="0 0 102 103" fill="none" xmlns="http://www.w3.org/2000/svg">
<g clip-path="url(#clip0_2160_886)">
<path d="M50.9999 98.231C25.4033 98.231 4.6488 77.4864 4.6488 51.8799C4.6488 26.2734 25.4033 5.52881 50.9999 5.52881C76.5964 5.52881 97.351 26.2833 97.351 51.8799C97.351 77.4764 76.5964 98.231 50.9999 98.231Z" fill="url(#paint0_linear_2160_886)"/>
<path fill-rule="evenodd" clip-rule="evenodd" d="M96.4501 51.8804C96.4501 76.9818 76.1016 97.3304 51.0001 97.3304C25.8987 97.3304 5.55013 76.9818 5.55013 51.8804C5.55013 26.7789 25.8987 6.43039 51.0001 6.43039C76.1016 6.43039 96.4501 26.7789 96.4501 51.8804ZM51.0001 2.72705C78.1513 2.72705 100.153 24.7292 100.153 51.8804C100.153 79.0316 78.1414 101.034 51.0001 101.034C23.849 101.034 1.8468 79.0217 1.8468 51.8804C1.8468 24.7292 23.849 2.72705 51.0001 2.72705Z" fill="#F2F1F0"/>
<path fill-rule="evenodd" clip-rule="evenodd" d="M93.6675 51.8797C93.6675 75.4463 74.5666 94.5472 50.9999 94.5472C27.4332 94.5472 8.33236 75.4463 8.33236 51.8797C8.33236 28.313 27.4332 9.21213 50.9999 9.21213C74.5666 9.21213 93.6675 28.313 93.6675 51.8797ZM50.9999 5.50879C76.6064 5.50879 97.3708 26.2732 97.3708 51.8797C97.3708 77.4861 76.6064 98.2506 50.9999 98.2506C25.3934 98.2506 4.62903 77.4861 4.62903 51.8797C4.62903 26.2732 25.3835 5.50879 50.9999 5.50879Z" fill="url(#paint1_linear_2160_886)"/>
<g filter="url(#filter0_dddd_2160_886)">
<path d="M88.6245 46.508C88.6245 45.6927 87.9523 45.0205 87.137 45.0205C86.6078 45.0205 83.2609 44.7201 81.473 43.3327C81.473 43.3327 81.4873 43.3184 81.473 43.3327C80.8007 40.8583 79.7995 38.5555 78.5838 36.3671C78.2691 34.2931 80.4146 32.7913 81.4015 31.1608C81.5731 30.8747 81.6732 30.7174 81.7304 30.603C81.9164 30.0737 81.8163 29.473 81.4015 29.0582C81.4015 29.0582 79.7566 26.6982 78.0688 25.0247C76.3811 23.3513 73.8208 21.4776 73.8208 21.4776C73.2487 20.9055 72.2904 20.9055 71.7183 21.4776C71.3321 21.8495 68.8004 23.952 66.512 24.281C66.4833 24.281 66.4833 24.281 66.4833 24.281C64.3522 23.0795 61.9636 22.0783 59.575 21.4061H59.5463C57.8586 20.1617 58.302 17.5871 57.8586 15.742C57.8586 14.9268 57.1863 14.2545 56.3711 14.2545C56.3711 14.2545 53.539 13.7539 51.1504 13.7539C48.7618 13.7539 45.6294 14.2545 45.6294 14.2545C44.8142 14.2545 44.1419 14.9268 44.1419 15.742C44.1419 16.2713 43.8415 19.6182 42.4541 21.4061C40.0798 22.0783 37.5911 23.1224 35.4885 24.2953C33.4146 24.61 31.9128 22.4645 30.2822 21.4776C29.9962 21.3059 29.8388 21.2058 29.7244 21.1486C29.1952 20.9627 28.5944 21.0628 28.1797 21.4776C28.1797 21.4776 25.8196 23.1224 24.1462 24.8102C22.4727 26.498 20.599 29.0582 20.599 29.0582C20.0269 29.6303 20.0269 30.5886 20.599 31.1608C20.9709 31.5327 23.1307 34.1215 23.4167 36.3671V36.3814C22.2439 38.484 21.214 40.9584 20.5418 43.3327C20.5418 43.3327 20.5704 43.2898 20.5418 43.3327C19.0972 45.092 16.7229 44.5771 14.8778 45.0205C14.0625 45.0205 13.3903 45.6927 13.3903 46.508C13.3903 46.508 12.8896 49.34 12.8896 51.7286C12.8896 54.1172 13.3903 57.2496 13.3903 57.2496C13.3903 58.0649 14.0625 58.7371 14.8778 58.7371C15.407 58.7371 18.7539 59.0375 20.5418 60.4249C20.5847 60.4106 20.5561 60.4535 20.5561 60.4535C21.2427 62.8278 22.2296 65.2164 23.4167 67.319C23.4024 67.3476 23.4167 67.319 23.431 67.3905C23.6313 69.5503 21.6002 70.9663 20.6133 72.5968C20.4417 72.8829 20.3416 73.0402 20.2843 73.1547C20.0984 73.6839 20.1985 74.2846 20.6133 74.6994C20.6133 74.6994 22.2582 77.0594 23.9459 78.7329C25.6337 80.4206 28.194 82.28 28.194 82.28C28.7661 82.8522 29.7244 82.8522 30.2965 82.28C30.6684 81.9082 33.2573 79.7484 35.5028 79.4623C35.5028 79.4623 35.4885 79.4766 35.5314 79.4766C37.6912 80.6781 39.9368 81.6364 42.3826 82.2943C42.3969 82.3086 42.4684 82.3229 42.4684 82.3229C44.1562 83.5673 43.7128 86.1419 44.1562 87.987C44.242 88.8165 44.6997 89.3458 45.6437 89.4745C45.6437 89.4745 48.4757 89.9751 50.8644 89.9751C53.253 89.9751 56.3854 89.4888 56.3854 89.4888C57.2006 89.3458 57.8729 88.8166 57.8729 88.0013C57.8729 87.4721 58.1732 84.1251 59.5606 82.3372C59.5606 82.3372 59.6179 82.28 59.6751 82.2371C62.1638 81.5363 64.0518 80.7639 66.2545 79.5052C66.3689 79.4623 66.2402 79.4766 66.512 79.4337C68.5859 79.119 70.0877 81.2645 71.7183 82.2514C72.0043 82.4231 72.1617 82.5232 72.2761 82.5804C72.8053 82.7663 73.406 82.6662 73.8208 82.2514C73.8208 82.2514 76.1808 80.6066 77.8543 78.9188C79.5421 77.231 81.4015 74.6708 81.4015 74.6708C81.9736 74.0987 81.9736 73.1404 81.4015 72.5682C81.0296 72.1964 78.8698 69.6075 78.5838 67.3619C78.5552 67.1331 78.5695 67.1044 78.5981 67.0329C79.8567 64.816 80.6434 63.1997 81.33 60.6824C81.33 60.6824 81.3014 60.5965 81.4587 60.382C82.7031 58.6942 85.2776 59.1376 87.1227 58.6942C87.938 58.6942 88.6102 58.022 88.6102 57.2067C88.6102 57.2067 89.1108 54.3747 89.1108 51.9861C89.1108 49.6404 88.6245 46.508 88.6245 46.508Z" fill="#F2F1F0"/>
<path d="M23.8401 78.8392C24.69 79.689 25.7571 80.5799 26.6096 81.2568C27.0363 81.5957 27.4101 81.8816 27.6773 82.0829C27.8109 82.1836 27.9179 82.2631 27.9915 82.3175L28.0762 82.3798L28.0964 82.3945C28.728 83.0168 29.7747 83.014 30.4026 82.3861C30.5793 82.2093 31.3106 81.583 32.2778 80.9654C33.2307 80.357 34.3931 79.7698 35.4671 79.6185C35.4673 79.6185 35.4675 79.6186 35.4677 79.6186C35.4738 79.6204 35.4798 79.6217 35.4857 79.6228C37.6402 80.8189 39.8819 81.7749 42.3227 82.4335C42.3341 82.4394 42.3432 82.4429 42.3473 82.4445L42.3482 82.4448C42.3636 82.4508 42.3794 82.4554 42.3914 82.4587C42.3958 82.4599 42.4 82.461 42.404 82.462C43.1803 83.0483 43.4784 83.9441 43.6307 84.9521C43.693 85.3646 43.73 85.7887 43.767 86.2136C43.7757 86.3131 43.7844 86.4127 43.7934 86.5121C43.8403 87.0291 43.896 87.5421 44.0081 88.0124C44.0546 88.4468 44.2 88.8176 44.4702 89.0977C44.742 89.3795 45.1259 89.5548 45.6207 89.6227C45.6216 89.6229 45.6225 89.623 45.6235 89.6231L45.6262 89.6237L45.6507 89.6279L45.7454 89.644C45.828 89.6577 45.9486 89.6774 46.1006 89.7009C46.4046 89.7481 46.8348 89.8109 47.3398 89.8736C48.3489 89.9991 49.6611 90.1251 50.8644 90.1251C52.0671 90.1251 53.4538 90.0028 54.5373 89.881C55.0797 89.8201 55.5471 89.7591 55.8791 89.7134C56.0451 89.6905 56.1772 89.6715 56.2679 89.6581L56.3721 89.6426L56.399 89.6385L56.406 89.6374L56.4077 89.6371L56.4082 89.6371H56.4084L56.4113 89.6365C57.265 89.4868 58.0229 88.9187 58.0229 88.0013C58.0229 87.7496 58.0963 86.7915 58.343 85.6736C58.5893 84.5569 59.0037 83.3041 59.6729 82.4372L59.6746 82.4356C59.6801 82.4303 59.6881 82.4227 59.6978 82.4139C59.7116 82.4011 59.7278 82.3868 59.7442 82.3735C62.2261 81.6727 64.1176 80.8982 66.319 79.6411C66.3471 79.6301 66.3682 79.6197 66.3864 79.6078C66.3868 79.6076 66.3872 79.6073 66.3876 79.6071C66.391 79.6063 66.3956 79.6054 66.4015 79.6043C66.4266 79.5994 66.4672 79.5926 66.5351 79.5819C67.5109 79.4341 68.3628 79.8614 69.1922 80.4751C69.5217 80.7189 69.842 80.9876 70.1631 81.2571C70.2462 81.3268 70.3293 81.3965 70.4126 81.4658C70.8154 81.8011 71.2225 82.1267 71.6406 82.3798L71.6411 82.3801C71.7171 82.4256 71.7847 82.4667 71.8454 82.5035C72.0081 82.6021 72.1207 82.6704 72.209 82.7146L72.2175 82.7188L72.2264 82.7219C72.8 82.9235 73.4579 82.8188 73.9174 82.367L73.9341 82.3552L74.0125 82.2996C74.0807 82.2511 74.18 82.1799 74.3042 82.0892C74.5526 81.9079 74.9011 81.6486 75.3022 81.3364C76.1034 80.7126 77.1175 79.8749 77.9608 79.0244C78.8106 78.1746 79.7014 77.1075 80.3783 76.2552C80.7171 75.8285 81.0031 75.4547 81.2044 75.1875C81.305 75.0538 81.3845 74.9469 81.4389 74.8732L81.5012 74.7886L81.516 74.7683C82.1382 74.1367 82.1354 73.09 81.5075 72.4622C81.3308 72.2854 80.7045 71.5542 80.0869 70.587C79.4681 69.618 78.8714 68.4324 78.7326 67.3433C78.7184 67.2295 78.7167 67.1785 78.719 67.1504C78.7204 67.1326 78.7225 67.1259 78.7336 67.0981C79.9928 64.8795 80.7846 63.2522 81.4747 60.7218L81.4866 60.678L81.4792 60.6558C81.4796 60.6542 81.48 60.6524 81.4805 60.6503C81.487 60.6255 81.5086 60.5676 81.5794 60.471C82.1653 59.6764 83.0693 59.3736 84.0878 59.2198C84.5003 59.1575 84.9244 59.1205 85.3492 59.0834C85.4488 59.0747 85.5484 59.0661 85.6478 59.057C86.1621 59.0104 86.6725 58.9551 87.1408 58.8441C88.0263 58.8344 88.753 58.1061 88.7602 57.22L88.7637 57.1997L88.7797 57.105C88.7935 57.0224 88.8131 56.9019 88.8367 56.7499C88.8838 56.4458 88.9466 56.0157 89.0094 55.5106C89.1349 54.5015 89.2608 53.1894 89.2608 51.9861C89.2608 50.8047 89.1385 49.4286 89.0167 48.3506C88.9558 47.8109 88.8948 47.3448 88.8491 47.0136C88.8262 46.8479 88.8072 46.7159 88.7938 46.6253L88.7783 46.5213L88.7745 46.4963C88.7681 45.6035 88.0312 44.8705 87.137 44.8705C86.8853 44.8705 85.9273 44.797 84.8093 44.5504C83.7061 44.307 82.4699 43.8996 81.6044 43.2444C80.931 40.7839 79.9347 38.4936 78.7282 36.3182C78.5917 35.3531 79.0169 34.509 79.6251 33.6869C79.8689 33.3573 80.1377 33.037 80.4072 32.7159C80.4768 32.6328 80.5465 32.5498 80.6159 32.4665C80.9512 32.0636 81.2767 31.6566 81.5298 31.2384L81.5301 31.2379C81.5757 31.162 81.6167 31.0943 81.6535 31.0336C81.7521 30.871 81.8204 30.7584 81.8646 30.67L81.8688 30.6616L81.872 30.6527C82.0735 30.079 81.9689 29.4212 81.517 28.9617L81.5052 28.9449L81.4497 28.8665C81.4011 28.7983 81.3299 28.6991 81.2393 28.5749C81.0579 28.3265 80.7987 27.9779 80.4864 27.5769C79.8626 26.7756 79.025 25.7615 78.1745 24.9182C77.3248 24.0757 76.2578 23.185 75.4054 22.5063C74.9787 22.1666 74.605 21.8793 74.3378 21.6769C74.2042 21.5757 74.0973 21.4957 74.0236 21.441L73.939 21.3783L73.9186 21.3633C73.2873 20.7411 72.2413 20.7436 71.6132 21.3705C71.4265 21.55 70.706 22.1614 69.7482 22.7687C68.7946 23.3732 67.6228 23.9628 66.5182 24.1285C64.3866 22.931 62.0014 21.9331 59.6156 21.2617L59.5969 21.2564C58.8309 20.67 58.5355 19.7789 58.3841 18.7769C58.3218 18.3644 58.2848 17.9403 58.2478 17.5154C58.2391 17.4159 58.2304 17.3164 58.2214 17.2169C58.1748 16.7026 58.1194 16.1922 58.0085 15.724C57.9987 14.8385 57.2705 14.1118 56.3844 14.1046L56.3641 14.1011L56.2694 14.085C56.1868 14.0713 56.0662 14.0516 55.9142 14.0281C55.6102 13.9809 55.18 13.9182 54.675 13.8554C53.6659 13.7299 52.3537 13.6039 51.1504 13.6039C49.9475 13.6039 48.5605 13.7298 47.477 13.8552C46.9346 13.918 46.4671 13.9807 46.1351 14.0278C45.9691 14.0513 45.837 14.0709 45.7462 14.0847L45.6421 14.1007L45.6174 14.1046C44.7247 14.1111 43.9919 14.8479 43.9919 15.742C43.9919 15.9937 43.9185 16.9518 43.6718 18.0697C43.4283 19.1733 43.0208 20.4098 42.3653 21.2754C40.003 21.9487 37.5327 22.9859 35.4396 24.1509C34.4745 24.2873 33.6304 23.8622 32.8083 23.2539C32.4788 23.0101 32.1585 22.7414 31.8373 22.4719C31.7543 22.4022 31.6712 22.3325 31.5879 22.2632C31.1851 21.9279 30.778 21.6023 30.3599 21.3493L30.3594 21.349C30.2835 21.3034 30.2158 21.2624 30.1552 21.2256C29.9925 21.1269 29.8798 21.0586 29.7915 21.0144L29.783 21.0102L29.7741 21.0071C29.2005 20.8055 28.5426 20.9102 28.0831 21.3621L28.0664 21.3738L27.988 21.4294C27.9197 21.4779 27.8205 21.5491 27.6963 21.6398C27.4479 21.8211 27.0994 22.0804 26.6983 22.3926C25.8971 23.0164 24.883 23.8541 24.0397 24.7046C23.1972 25.5543 22.3064 26.6213 21.6277 27.4737C21.288 27.9003 21.0007 28.2741 20.7984 28.5412C20.6972 28.6748 20.6172 28.7818 20.5624 28.8554L20.4997 28.94L20.4847 28.9605C19.8623 29.5921 19.865 30.6389 20.493 31.2668C20.6697 31.4436 21.296 32.1748 21.9136 33.142C22.5254 34.1001 23.1157 35.2701 23.263 36.3491C22.099 38.4439 21.0774 40.9004 20.4061 43.2613C19.7205 44.0811 18.8176 44.3787 17.8383 44.5216C17.4393 44.5798 17.033 44.6117 16.6246 44.6438C16.5251 44.6516 16.4254 44.6594 16.3257 44.6676C15.8265 44.7087 15.3282 44.7596 14.8597 44.8706C13.9742 44.8804 13.2475 45.6086 13.2403 46.4947L13.2368 46.515L13.2208 46.6097C13.207 46.6923 13.1874 46.8128 13.1638 46.9648C13.1167 47.2689 13.0539 47.699 12.9911 48.2041C12.8656 49.2132 12.7396 50.5253 12.7396 51.7286C12.7396 52.9316 12.8656 54.3185 12.9909 55.4021C13.0537 55.9445 13.1164 56.4119 13.1635 56.7439C13.1871 56.9099 13.2067 57.0421 13.2204 57.1328L13.2364 57.237L13.2403 57.2617C13.2469 58.1544 13.9837 58.8871 14.8778 58.8871C15.1295 58.8871 16.0875 58.9606 17.2055 59.2072C18.3125 59.4515 19.5532 59.8608 20.4191 60.5198C21.1037 62.8801 22.0834 65.2538 23.2616 67.3493C23.2631 67.3633 23.2664 67.3773 23.2719 67.391C23.2756 67.4002 23.2795 67.4075 23.2822 67.4121C23.2823 67.4124 23.2824 67.4128 23.2825 67.4131C23.3743 68.4346 22.9429 69.2887 22.3463 70.1035C22.1071 70.4302 21.845 70.7459 21.5819 71.0628C21.5153 71.143 21.4487 71.2233 21.3823 71.3038C21.0559 71.7 20.7378 72.1015 20.485 72.5192L20.4847 72.5197C20.4391 72.5956 20.3981 72.6633 20.3613 72.7239C20.2627 72.8866 20.1944 72.9992 20.1502 73.0876L20.146 73.096L20.1428 73.1049C19.9413 73.6786 20.0459 74.3364 20.4978 74.7959L20.5096 74.8127L20.5651 74.8911C20.6137 74.9593 20.6849 75.0585 20.7755 75.1827C20.9569 75.4311 21.2161 75.7797 21.5284 76.1807C22.1521 76.9819 22.9897 77.9959 23.8401 78.8392ZM23.8401 78.8392C23.84 78.8391 23.84 78.839 23.8399 78.8389L23.9459 78.7329L23.8403 78.8394C23.8403 78.8393 23.8402 78.8392 23.8401 78.8392Z" stroke="black" stroke-width="0.3"/>
</g>
<path d="M50.9786 80.0056C35.4884 80.0056 22.8873 67.4046 22.8873 51.9286C22.8873 36.4527 35.4884 23.8517 50.9786 23.8517C66.4689 23.8517 79.0556 36.4527 79.0556 51.9286C79.0556 67.4046 66.4546 80.0056 50.9786 80.0056ZM50.9786 24.9101C36.0891 24.9101 23.9601 37.0248 23.9601 51.9143C23.9601 66.8038 36.0748 78.9186 50.9786 78.9186C65.8681 78.9186 77.9829 66.8038 77.9829 51.9143C77.9829 37.0248 65.8681 24.9101 50.9786 24.9101Z" fill="url(#paint2_linear_2160_886)"/>
<path d="M50.9788 26.4689C52.2111 26.4689 53.2101 25.4699 53.2101 24.2376C53.2101 23.0053 52.2111 22.0063 50.9788 22.0063C49.7465 22.0063 48.7475 23.0053 48.7475 24.2376C48.7475 25.4699 49.7465 26.4689 50.9788 26.4689Z" fill="url(#paint3_linear_2160_886)"/>
<path d="M50.9788 81.7359C52.2111 81.7359 53.2101 80.737 53.2101 79.5047C53.2101 78.2724 52.2111 77.2734 50.9788 77.2734C49.7465 77.2734 48.7475 78.2724 48.7475 79.5047C48.7475 80.737 49.7465 81.7359 50.9788 81.7359Z" fill="url(#paint4_linear_2160_886)"/>
<path d="M50.9787 73.712C38.9641 73.712 29.1808 63.9287 29.1808 51.9141C29.1808 39.8995 38.9641 30.1162 50.9787 30.1162C62.9933 30.1162 72.7767 39.8995 72.7767 51.9141C72.7767 63.9287 62.9933 73.712 50.9787 73.712ZM50.9787 31.1889C39.5506 31.1889 30.2536 40.486 30.2536 51.9141C30.2536 63.3423 39.5506 72.6393 50.9787 72.6393C62.4069 72.6393 71.7039 63.3423 71.7039 51.9141C71.7039 40.486 62.4069 31.1889 50.9787 31.1889Z" fill="url(#paint5_linear_2160_886)"/>
<path d="M72.2338 54.1027C73.4661 54.1027 74.4651 53.1037 74.4651 51.8714C74.4651 50.6391 73.4661 49.6401 72.2338 49.6401C71.0015 49.6401 70.0025 50.6391 70.0025 51.8714C70.0025 53.1037 71.0015 54.1027 72.2338 54.1027Z" fill="url(#paint6_linear_2160_886)"/>
<path d="M29.7249 54.1026C30.9572 54.1026 31.9562 53.1036 31.9562 51.8713C31.9562 50.639 30.9572 49.64 29.7249 49.64C28.4926 49.64 27.4937 50.639 27.4937 51.8713C27.4937 53.1036 28.4926 54.1026 29.7249 54.1026Z" fill="url(#paint7_linear_2160_886)"/>
<g filter="url(#filter1_dddd_2160_886)">
<path d="M59.2921 68.6178H62.0347C62.5809 68.6178 63.0237 68.1751 63.0237 67.6288V58.0563C63.0237 57.51 62.5809 57.0673 62.0347 57.0673H46.8768C46.3305 57.0673 45.8878 57.51 45.8878 58.0563V67.6288C45.8878 68.1751 46.3305 68.6178 46.8768 68.6178H55.3408L59.0364 72.2897C59.0794 72.3324 59.1438 72.3451 59.1998 72.3218C59.2557 72.2986 59.2921 72.2439 59.2921 72.1833V68.6178Z" fill="#1C4A79" stroke="black" stroke-width="0.3" stroke-linejoin="round"/>
<path d="M35.2748 54.4985H38.5926V58.7273C38.5926 58.7878 38.629 58.8425 38.685 58.8657C38.7409 58.889 38.8053 58.8764 38.8483 58.8337L43.2151 54.4985H62.0666C62.6768 54.4985 63.1755 53.9999 63.1755 53.3897V35.3793C63.1755 34.769 62.6768 34.2704 62.0666 34.2704H35.2748C34.6646 34.2704 34.1659 34.7691 34.1659 35.3793V53.3897C34.1659 53.9999 34.6646 54.4985 35.2748 54.4985Z" fill="#49C8EF" stroke="black" stroke-width="0.3" stroke-linejoin="round"/>
<path d="M44.9492 42.7515H42.4907V40.293H44.9492V42.7515Z" fill="white"/>
<path d="M54.7661 42.7515H52.3076V40.293H54.7661V42.7515Z" fill="white"/>
<path d="M43.3663 45.4795C44.0735 46.1867 44.8818 46.7256 45.7911 47.096C46.7004 47.4665 47.6603 47.6686 48.6538 47.6686C49.6473 47.6686 50.6071 47.4833 51.5164 47.096C52.4257 46.7256 53.234 46.1867 53.9412 45.4795L55.6757 47.2308C54.7495 48.1569 53.6718 48.881 52.4594 49.3862C51.247 49.8913 49.9841 50.1271 48.6706 50.1271C47.3572 50.1271 46.0942 49.8745 44.8818 49.3862C43.6694 48.881 42.6085 48.1737 41.6655 47.2308L43.3663 45.4795Z" fill="white"/>
<path d="M57.4943 60.5522H51.4171C51.1777 60.5522 50.9818 60.7481 50.9818 60.9875C50.9818 61.2269 51.1777 61.4227 51.4171 61.4227H57.4943C57.7336 61.4227 57.9295 61.2269 57.9295 60.9875C57.9295 60.7481 57.7336 60.5522 57.4943 60.5522Z" fill="#34AEE4"/>
<path d="M57.4941 62.4619H51.4169C51.1776 62.4619 50.9817 62.6578 50.9817 62.8972C50.9817 63.1366 51.1776 63.3324 51.4169 63.3324H57.4941C57.7335 63.3324 57.9294 63.1366 57.9294 62.8972C57.9294 62.6632 57.7335 62.4619 57.4941 62.4619Z" fill="#34AEE4"/>
<path d="M57.4941 64.3823H51.4169C51.1776 64.3823 50.9817 64.5782 50.9817 64.8176C50.9817 65.057 51.1776 65.2528 51.4169 65.2528H57.4941C57.7335 65.2528 57.9294 65.057 57.9294 64.8176C57.9294 64.5727 57.7335 64.3823 57.4941 64.3823Z" fill="#34AEE4"/>
</g>
</g>
<defs>
<filter id="filter0_dddd_2160_886" x="9.5896" y="12.4541" width="90.8213" height="97.8208" filterUnits="userSpaceOnUse" color-interpolation-filters="sRGB">
<feFlood flood-opacity="0" result="BackgroundImageFix"/>
<feColorMatrix in="SourceAlpha" type="matrix" values="0 0 0 0 0 0 0 0 0 0 0 0 0 0 0 0 0 0 127 0" result="hardAlpha"/>
<feOffset dy="1"/>
<feGaussianBlur stdDeviation="1"/>
<feColorMatrix type="matrix" values="0 0 0 0 0 0 0 0 0 0 0 0 0 0 0 0 0 0 0.1 0"/>
<feBlend mode="normal" in2="BackgroundImageFix" result="effect1_dropShadow_2160_886"/>
<feColorMatrix in="SourceAlpha" type="matrix" values="0 0 0 0 0 0 0 0 0 0 0 0 0 0 0 0 0 0 127 0" result="hardAlpha"/>
<feOffset dx="1" dy="4"/>
<feGaussianBlur stdDeviation="2"/>
<feColorMatrix type="matrix" values="0 0 0 0 0 0 0 0 0 0 0 0 0 0 0 0 0 0 0.09 0"/>
<feBlend mode="normal" in2="effect1_dropShadow_2160_886" result="effect2_dropShadow_2160_886"/>
<feColorMatrix in="SourceAlpha" type="matrix" values="0 0 0 0 0 0 0 0 0 0 0 0 0 0 0 0 0 0 127 0" result="hardAlpha"/>
<feOffset dx="3" dy="8"/>
<feGaussianBlur stdDeviation="2.5"/>
<feColorMatrix type="matrix" values="0 0 0 0 0 0 0 0 0 0 0 0 0 0 0 0 0 0 0.05 0"/>
<feBlend mode="normal" in2="effect2_dropShadow_2160_886" result="effect3_dropShadow_2160_886"/>
<feColorMatrix in="SourceAlpha" type="matrix" values="0 0 0 0 0 0 0 0 0 0 0 0 0 0 0 0 0 0 127 0" result="hardAlpha"/>
<feOffset dx="5" dy="14"/>
<feGaussianBlur stdDeviation="3"/>
<feColorMatrix type="matrix" values="0 0 0 0 0 0 0 0 0 0 0 0 0 0 0 0 0 0 0.01 0"/>
<feBlend mode="normal" in2="effect3_dropShadow_2160_886" result="effect4_dropShadow_2160_886"/>
<feBlend mode="normal" in="SourceGraphic" in2="effect4_dropShadow_2160_886" result="shape"/>
</filter>
<filter id="filter1_dddd_2160_886" x="33.0159" y="33.1206" width="33.3096" height="46.3628" filterUnits="userSpaceOnUse" color-interpolation-filters="sRGB">
<feFlood flood-opacity="0" result="BackgroundImageFix"/>
<feColorMatrix in="SourceAlpha" type="matrix" values="0 0 0 0 0 0 0 0 0 0 0 0 0 0 0 0 0 0 127 0" result="hardAlpha"/>
<feOffset/>
<feGaussianBlur stdDeviation="0.5"/>
<feColorMatrix type="matrix" values="0 0 0 0 0 0 0 0 0 0 0 0 0 0 0 0 0 0 0.1 0"/>
<feBlend mode="normal" in2="BackgroundImageFix" result="effect1_dropShadow_2160_886"/>
<feColorMatrix in="SourceAlpha" type="matrix" values="0 0 0 0 0 0 0 0 0 0 0 0 0 0 0 0 0 0 127 0" result="hardAlpha"/>
<feOffset dy="1"/>
<feGaussianBlur stdDeviation="0.5"/>
<feColorMatrix type="matrix" values="0 0 0 0 0 0 0 0 0 0 0 0 0 0 0 0 0 0 0.09 0"/>
<feBlend mode="normal" in2="effect1_dropShadow_2160_886" result="effect2_dropShadow_2160_886"/>
<feColorMatrix in="SourceAlpha" type="matrix" values="0 0 0 0 0 0 0 0 0 0 0 0 0 0 0 0 0 0 127 0" result="hardAlpha"/>
<feOffset dx="1" dy="3"/>
<feGaussianBlur stdDeviation="1"/>
<feColorMatrix type="matrix" values="0 0 0 0 0 0 0 0 0 0 0 0 0 0 0 0 0 0 0.05 0"/>
<feBlend mode="normal" in2="effect2_dropShadow_2160_886" result="effect3_dropShadow_2160_886"/>
<feColorMatrix in="SourceAlpha" type="matrix" values="0 0 0 0 0 0 0 0 0 0 0 0 0 0 0 0 0 0 127 0" result="hardAlpha"/>
<feOffset dx="1" dy="5"/>
<feGaussianBlur stdDeviation="1"/>
<feColorMatrix type="matrix" values="0 0 0 0 0 0 0 0 0 0 0 0 0 0 0 0 0 0 0.01 0"/>
<feBlend mode="normal" in2="effect3_dropShadow_2160_886" result="effect4_dropShadow_2160_886"/>
<feBlend mode="normal" in="SourceGraphic" in2="effect4_dropShadow_2160_886" result="shape"/>
</filter>
<linearGradient id="paint0_linear_2160_886" x1="25.2852" y1="10.377" x2="100.192" y2="149.573" gradientUnits="userSpaceOnUse">
<stop offset="0.0001" stop-color="#50E6FF"/>
<stop offset="0.623265" stop-color="#0078D4"/>
</linearGradient>
<linearGradient id="paint1_linear_2160_886" x1="15.5867" y1="12.1029" x2="83.1292" y2="99.5005" gradientUnits="userSpaceOnUse">
<stop stop-color="#007ED8"/>
<stop offset="0.915361" stop-color="#002D4C"/>
</linearGradient>
<linearGradient id="paint2_linear_2160_886" x1="35.3909" y1="25.1301" x2="85.2498" y2="112.257" gradientUnits="userSpaceOnUse">
<stop offset="0.0001" stop-color="#50E6FF"/>
<stop offset="0.623265" stop-color="#0078D4"/>
</linearGradient>
<linearGradient id="paint3_linear_2160_886" x1="35.3909" y1="25.1301" x2="85.2498" y2="112.257" gradientUnits="userSpaceOnUse">
<stop offset="0.0001" stop-color="#50E6FF"/>
<stop offset="0.623265" stop-color="#0078D4"/>
</linearGradient>
<linearGradient id="paint4_linear_2160_886" x1="35.3909" y1="25.1301" x2="85.2498" y2="112.257" gradientUnits="userSpaceOnUse">
<stop offset="0.0001" stop-color="#50E6FF"/>
<stop offset="0.623265" stop-color="#0078D4"/>
</linearGradient>
<linearGradient id="paint5_linear_2160_886" x1="37.9499" y1="32.3962" x2="71.6953" y2="99.9595" gradientUnits="userSpaceOnUse">
<stop offset="0.0001" stop-color="#50E6FF"/>
<stop offset="0.623265" stop-color="#0078D4"/>
</linearGradient>
<linearGradient id="paint6_linear_2160_886" x1="37.9499" y1="32.3962" x2="71.6953" y2="99.9595" gradientUnits="userSpaceOnUse">
<stop offset="0.0001" stop-color="#50E6FF"/>
<stop offset="0.623265" stop-color="#0078D4"/>
</linearGradient>
<linearGradient id="paint7_linear_2160_886" x1="37.9499" y1="32.3962" x2="71.6953" y2="99.9595" gradientUnits="userSpaceOnUse">
<stop offset="0.0001" stop-color="#50E6FF"/>
<stop offset="0.623265" stop-color="#0078D4"/>
</linearGradient>
<clipPath id="clip0_2160_886">
<rect width="102" height="102" fill="white" transform="translate(0 0.879883)"/>
</clipPath>
</defs>
</svg>
