<svg width="102" height="102" viewBox="0 0 102 102" fill="none" xmlns="http://www.w3.org/2000/svg">
<path d="M51.4999 97.8506C25.9033 97.8506 5.1488 77.106 5.1488 51.4995C5.1488 25.893 25.9033 5.14844 51.4999 5.14844C77.0964 5.14844 97.851 25.9029 97.851 51.4995C97.851 77.0961 77.0964 97.8506 51.4999 97.8506Z" fill="url(#paint0_linear_2180_2860)"/>
<path fill-rule="evenodd" clip-rule="evenodd" d="M96.9501 51.5C96.9501 76.6015 76.6016 96.95 51.5001 96.95C26.3987 96.95 6.05013 76.6015 6.05013 51.5C6.05013 26.3985 26.3987 6.05002 51.5001 6.05002C76.6016 6.05002 96.9501 26.3985 96.9501 51.5ZM51.5001 2.34668C78.6513 2.34668 100.653 24.3488 100.653 51.5C100.653 78.6512 78.6414 100.653 51.5001 100.653C24.349 100.653 2.3468 78.6413 2.3468 51.5C2.3468 24.3488 24.349 2.34668 51.5001 2.34668Z" fill="#F2F1F0"/>
<path d="M94.0175 51.4998C94.0175 74.9836 74.9837 94.0173 51.4999 94.0173C28.0161 94.0173 8.98236 74.9836 8.98236 51.4998C8.98236 28.016 28.0161 8.98224 51.4999 8.98224C74.9837 8.98224 94.0175 28.016 94.0175 51.4998ZM98.0208 51.4998C98.0208 25.8105 77.1892 4.97891 51.4999 4.97891C25.8007 4.97891 4.97903 25.8105 4.97903 51.4998C4.97903 77.1891 25.8106 98.0207 51.4999 98.0207C77.1892 98.0207 98.0208 77.1891 98.0208 51.4998Z" fill="url(#paint1_linear_2180_2860)" stroke="black" stroke-width="0.3" stroke-linejoin="round"/>
<g filter="url(#filter0_ddddd_2180_2860)">
<path d="M29.7093 72.3145L29.7093 28.6674C29.7093 28.4867 29.7423 28.3076 29.8063 28.1406C29.8702 27.9736 29.9639 27.822 30.082 27.6942C30.2002 27.5664 30.3404 27.4651 30.4947 27.3959C30.6491 27.3267 30.8144 27.291 30.9815 27.291L83.1817 27.291C83.6638 27.291 84.1259 27.4983 84.4668 27.867C84.8076 28.2357 84.9993 28.7357 84.9993 29.2571L84.9993 72.0392C84.9993 72.4824 84.8364 72.9075 84.5467 73.221C84.2569 73.5344 83.8639 73.7103 83.4542 73.7103L30.9815 73.7103C30.8115 73.7159 30.6422 73.6835 30.4843 73.615C30.3264 73.5466 30.1833 73.4437 30.0638 73.3126C29.9444 73.1816 29.8513 73.0253 29.7903 72.8535C29.7293 72.6817 29.7017 72.4983 29.7093 72.3145Z" fill="#F2F1F0"/>
<path d="M18.874 71.9072L18.874 28.655C18.874 28.4759 18.8997 28.2984 18.9494 28.1329C18.9991 27.9675 19.072 27.8172 19.1639 27.6906C19.2558 27.5639 19.3648 27.4635 19.4848 27.3949C19.6049 27.3264 19.7335 27.291 19.8634 27.291L60.4595 27.291C60.8344 27.291 61.1938 27.4964 61.4589 27.8618C61.724 28.2272 61.873 28.7226 61.873 29.2393L61.873 71.6344C61.873 72.0736 61.7464 72.4949 61.521 72.8055C61.2957 73.116 60.9901 73.2904 60.6714 73.2904L19.8634 73.2904C19.7312 73.2959 19.5995 73.2638 19.4767 73.196C19.3539 73.1282 19.2426 73.0262 19.1497 72.8963C19.0569 72.7665 18.9844 72.6116 18.937 72.4413C18.8895 72.2711 18.8681 72.0893 18.874 71.9072Z" fill="white"/>
</g>
<path d="M48.6694 59.9268V56.0097H46.6875V53.0759C46.6875 52.6701 46.6095 52.2878 46.4534 51.9288C46.2974 51.5699 46.0867 51.2656 45.8214 50.9925C45.5483 50.7272 45.2362 50.5165 44.8772 50.3682C44.5183 50.2122 44.1281 50.142 43.7146 50.142H36.77V46.9506C37.0665 46.7789 37.3084 46.537 37.4879 46.2327C37.6673 45.9284 37.761 45.6007 37.761 45.2495C37.761 44.9764 37.7064 44.7189 37.6049 44.4849C37.5035 44.2508 37.363 44.0401 37.1758 43.8684C36.9963 43.689 36.7856 43.5485 36.5437 43.4471C36.3018 43.3456 36.0521 43.291 35.7712 43.291C35.4903 43.291 35.2328 43.3378 34.9988 43.4471C34.7569 43.5485 34.554 43.689 34.3667 43.8684C34.1873 44.0479 34.039 44.2508 33.9376 44.4849C33.8361 44.7189 33.7815 44.9764 33.7815 45.2495C33.7815 45.6007 33.8751 45.9206 34.0546 46.2327C34.2341 46.537 34.476 46.7789 34.7725 46.9506V50.142H27.8279C27.4143 50.142 27.0242 50.22 26.6653 50.3682C26.3063 50.5243 25.9864 50.735 25.7211 50.9925C25.448 51.2578 25.2451 51.5699 25.0891 51.9288C24.933 52.2878 24.855 52.6701 24.855 53.0759V56.0097H22.873V59.919H24.855V64.8114C24.855 65.2172 24.933 65.5995 25.0891 65.9584C25.2451 66.3174 25.4558 66.6217 25.7211 66.8948C25.9942 67.1601 26.3063 67.3708 26.6653 67.519C27.0242 67.6751 27.4143 67.7453 27.8279 67.7453H32.7905H39.6103H43.7068C44.1203 67.7453 44.5105 67.6673 44.8694 67.519C45.2284 67.363 45.5483 67.1523 45.8136 66.8948C46.0867 66.6295 46.2895 66.3174 46.4456 65.9584C46.6017 65.5995 46.6797 65.2172 46.6797 64.8114V59.919H48.6694V59.9268Z" fill="url(#paint2_linear_2180_2860)"/>
<path d="M33.0556 58.2416H31.019V56.2051H33.0556V58.2416Z" fill="white"/>
<path d="M40.5231 58.2416H38.4866V56.2051H40.5231V58.2416Z" fill="white"/>
<path d="M31.6826 60.2783C32.2288 60.7933 32.8531 61.1835 33.5553 61.4644C34.2576 61.7375 34.9989 61.8779 35.7714 61.8779C36.5439 61.8779 37.2851 61.7375 37.9874 61.4644C38.6897 61.1913 39.3139 60.7933 39.8601 60.2783L41.1944 61.558C40.4687 62.2447 39.6416 62.7674 38.6975 63.1342C37.7611 63.5009 36.7779 63.6804 35.7558 63.6804C34.7336 63.6804 33.7504 63.5009 32.8141 63.1342C31.8777 62.7674 31.0428 62.2447 30.3171 61.558L31.6826 60.2783Z" fill="white"/>
<g filter="url(#filter1_dddd_2180_2860)">
<path d="M56.1272 33.291H44.0324C42.2977 33.291 40.873 34.7156 40.873 36.4504V41.3929C40.873 43.1277 42.2977 44.5523 44.0324 44.5523H47.2693V47.0527C47.2693 47.2659 47.531 47.3725 47.6763 47.2174L50.3415 44.5523H56.1175C57.8522 44.5523 59.2768 43.1277 59.2768 41.3929V36.4504C59.2768 34.7059 57.8619 33.291 56.1272 33.291Z" fill="white"/>
</g>
<path d="M53.966 37.7971H46.1936C45.9222 37.7971 45.6993 37.5742 45.6993 37.3029C45.6993 37.0315 45.9222 36.8086 46.1936 36.8086H53.966C54.2374 36.8086 54.4603 37.0315 54.4603 37.3029C54.4603 37.5742 54.2374 37.7971 53.966 37.7971Z" fill="url(#paint3_linear_2180_2860)"/>
<path d="M53.966 40.1233H46.1936C45.9222 40.1233 45.6993 39.9004 45.6993 39.629C45.6993 39.3577 45.9222 39.1348 46.1936 39.1348H53.966C54.2374 39.1348 54.4603 39.3577 54.4603 39.629C54.4603 39.9101 54.2374 40.1233 53.966 40.1233Z" fill="url(#paint4_linear_2180_2860)"/>
<g filter="url(#filter2_ddddd_2180_2860)">
<path fill-rule="evenodd" clip-rule="evenodd" d="M69.1488 42.9411H79.733C80.4648 42.9411 81.0581 42.3479 81.0581 41.6161V41.6161C81.0581 40.8843 80.4648 40.291 79.733 40.291H69.1488V42.9411Z" fill="white"/>
<path fill-rule="evenodd" clip-rule="evenodd" d="M65.6885 41.6161C65.6885 42.3479 66.2817 42.9411 67.0135 42.9411H72.134V40.291H67.0135C66.2817 40.291 65.6885 40.8843 65.6885 41.6161V41.6161Z" fill="#48C6F4"/>
</g>
<g filter="url(#filter3_ddddd_2180_2860)">
<path fill-rule="evenodd" clip-rule="evenodd" d="M72.4955 48.28H79.7328C80.4646 48.28 81.0578 47.6868 81.0578 46.9549V46.9549C81.0578 46.2231 80.4646 45.6299 79.7328 45.6299H72.4955V48.28Z" fill="white"/>
<path fill-rule="evenodd" clip-rule="evenodd" d="M65.6885 46.9549C65.6885 47.6868 66.2817 48.28 67.0135 48.28H75.8795V45.6299H67.0135C66.2817 45.6299 65.6885 46.2231 65.6885 46.9549V46.9549Z" fill="#2490CF"/>
</g>
<g filter="url(#filter4_ddddd_2180_2860)">
<path fill-rule="evenodd" clip-rule="evenodd" d="M71.1649 53.6902H79.7329C80.4647 53.6902 81.058 53.0969 81.058 52.3651V52.3651C81.058 51.6333 80.4647 51.04 79.7329 51.04H71.1649V53.6902Z" fill="white"/>
<path fill-rule="evenodd" clip-rule="evenodd" d="M65.6885 52.3651C65.6885 53.0969 66.2817 53.6902 67.0135 53.6902H72.134V51.04H67.0135C66.2817 51.04 65.6885 51.6333 65.6885 52.3651V52.3651Z" fill="#0E6EA8"/>
</g>
<g filter="url(#filter5_ddddd_2180_2860)">
<path fill-rule="evenodd" clip-rule="evenodd" d="M73.6653 59.1247H79.7332C80.465 59.1247 81.0582 58.5315 81.0582 57.7997V57.7997C81.0582 57.0679 80.465 56.4746 79.7332 56.4746H73.6653V59.1247Z" fill="white"/>
<path fill-rule="evenodd" clip-rule="evenodd" d="M65.6885 57.7997C65.6885 58.5315 66.2817 59.1247 67.0135 59.1247H75.8795V56.4746H67.0135C66.2817 56.4746 65.6885 57.0679 65.6885 57.7997V57.7997Z" fill="#173F68"/>
</g>
<g filter="url(#filter6_dddddi_2180_2860)">
<circle cx="75.9446" cy="46.948" r="1.33568" fill="#41B0F0"/>
</g>
<g filter="url(#filter7_dddddi_2180_2860)">
<circle cx="72.1966" cy="52.3777" r="1.33568" fill="#2991CF"/>
</g>
<g filter="url(#filter8_dddddi_2180_2860)">
<circle cx="75.9199" cy="57.8093" r="1.33568" fill="#196497"/>
</g>
<g filter="url(#filter9_dddddi_2180_2860)">
<circle cx="72.032" cy="41.6267" r="1.33568" fill="#7AECFF"/>
</g>
<path d="M62.873 79.291C67.292 79.291 70.873 75.71 70.873 71.291C70.873 66.8721 67.292 63.291 62.873 63.291C58.4541 63.291 54.873 66.8721 54.873 71.291C54.873 75.7012 58.4541 79.291 62.873 79.291Z" fill="#333238"/>
<path d="M67.8862 67.8764C67.5188 67.5114 66.9253 67.513 66.5599 67.8799L60.6237 73.8399L59.3132 72.5235C58.9467 72.1554 58.3505 72.1567 57.9857 72.5264V72.5264C57.6249 72.892 57.6269 73.4803 57.9901 73.8435L59.8421 75.6955C60.2784 76.1318 60.986 76.1313 61.4216 75.6942L67.8895 69.2047C68.2559 68.8371 68.2544 68.2421 67.8862 67.8764V67.8764Z" fill="#FAF9F8"/>
<defs>
<filter id="filter0_ddddd_2180_2860" x="10.873" y="25.291" width="82.1262" height="75.4199" filterUnits="userSpaceOnUse" color-interpolation-filters="sRGB">
<feFlood flood-opacity="0" result="BackgroundImageFix"/>
<feColorMatrix in="SourceAlpha" type="matrix" values="0 0 0 0 0 0 0 0 0 0 0 0 0 0 0 0 0 0 127 0" result="hardAlpha"/>
<feOffset/>
<feColorMatrix type="matrix" values="0 0 0 0 0 0 0 0 0 0 0 0 0 0 0 0 0 0 0.1 0"/>
<feBlend mode="normal" in2="BackgroundImageFix" result="effect1_dropShadow_2180_2860"/>
<feColorMatrix in="SourceAlpha" type="matrix" values="0 0 0 0 0 0 0 0 0 0 0 0 0 0 0 0 0 0 127 0" result="hardAlpha"/>
<feOffset dy="1"/>
<feGaussianBlur stdDeviation="1.5"/>
<feColorMatrix type="matrix" values="0 0 0 0 0 0 0 0 0 0 0 0 0 0 0 0 0 0 0.1 0"/>
<feBlend mode="normal" in2="effect1_dropShadow_2180_2860" result="effect2_dropShadow_2180_2860"/>
<feColorMatrix in="SourceAlpha" type="matrix" values="0 0 0 0 0 0 0 0 0 0 0 0 0 0 0 0 0 0 127 0" result="hardAlpha"/>
<feOffset dy="5"/>
<feGaussianBlur stdDeviation="2.5"/>
<feColorMatrix type="matrix" values="0 0 0 0 0 0 0 0 0 0 0 0 0 0 0 0 0 0 0.09 0"/>
<feBlend mode="normal" in2="effect2_dropShadow_2180_2860" result="effect3_dropShadow_2180_2860"/>
<feColorMatrix in="SourceAlpha" type="matrix" values="0 0 0 0 0 0 0 0 0 0 0 0 0 0 0 0 0 0 127 0" result="hardAlpha"/>
<feOffset dy="11"/>
<feGaussianBlur stdDeviation="3"/>
<feColorMatrix type="matrix" values="0 0 0 0 0 0 0 0 0 0 0 0 0 0 0 0 0 0 0.05 0"/>
<feBlend mode="normal" in2="effect3_dropShadow_2180_2860" result="effect4_dropShadow_2180_2860"/>
<feColorMatrix in="SourceAlpha" type="matrix" values="0 0 0 0 0 0 0 0 0 0 0 0 0 0 0 0 0 0 127 0" result="hardAlpha"/>
<feOffset dy="19"/>
<feGaussianBlur stdDeviation="4"/>
<feColorMatrix type="matrix" values="0 0 0 0 0 0 0 0 0 0 0 0 0 0 0 0 0 0 0.01 0"/>
<feBlend mode="normal" in2="effect4_dropShadow_2180_2860" result="effect5_dropShadow_2180_2860"/>
<feBlend mode="normal" in="SourceGraphic" in2="effect5_dropShadow_2180_2860" result="shape"/>
</filter>
<filter id="filter1_dddd_2180_2860" x="36.873" y="33.291" width="26.4038" height="28" filterUnits="userSpaceOnUse" color-interpolation-filters="sRGB">
<feFlood flood-opacity="0" result="BackgroundImageFix"/>
<feColorMatrix in="SourceAlpha" type="matrix" values="0 0 0 0 0 0 0 0 0 0 0 0 0 0 0 0 0 0 127 0" result="hardAlpha"/>
<feOffset dy="1"/>
<feGaussianBlur stdDeviation="0.5"/>
<feColorMatrix type="matrix" values="0 0 0 0 0 0 0 0 0 0 0 0 0 0 0 0 0 0 0.1 0"/>
<feBlend mode="normal" in2="BackgroundImageFix" result="effect1_dropShadow_2180_2860"/>
<feColorMatrix in="SourceAlpha" type="matrix" values="0 0 0 0 0 0 0 0 0 0 0 0 0 0 0 0 0 0 127 0" result="hardAlpha"/>
<feOffset dy="2"/>
<feGaussianBlur stdDeviation="1"/>
<feColorMatrix type="matrix" values="0 0 0 0 0 0 0 0 0 0 0 0 0 0 0 0 0 0 0.09 0"/>
<feBlend mode="normal" in2="effect1_dropShadow_2180_2860" result="effect2_dropShadow_2180_2860"/>
<feColorMatrix in="SourceAlpha" type="matrix" values="0 0 0 0 0 0 0 0 0 0 0 0 0 0 0 0 0 0 127 0" result="hardAlpha"/>
<feOffset dy="5"/>
<feGaussianBlur stdDeviation="1.5"/>
<feColorMatrix type="matrix" values="0 0 0 0 0 0 0 0 0 0 0 0 0 0 0 0 0 0 0.05 0"/>
<feBlend mode="normal" in2="effect2_dropShadow_2180_2860" result="effect3_dropShadow_2180_2860"/>
<feColorMatrix in="SourceAlpha" type="matrix" values="0 0 0 0 0 0 0 0 0 0 0 0 0 0 0 0 0 0 127 0" result="hardAlpha"/>
<feOffset dy="10"/>
<feGaussianBlur stdDeviation="2"/>
<feColorMatrix type="matrix" values="0 0 0 0 0 0 0 0 0 0 0 0 0 0 0 0 0 0 0.01 0"/>
<feBlend mode="normal" in2="effect3_dropShadow_2180_2860" result="effect4_dropShadow_2180_2860"/>
<feBlend mode="normal" in="SourceGraphic" in2="effect4_dropShadow_2180_2860" result="shape"/>
</filter>
<filter id="filter2_ddddd_2180_2860" x="63.6885" y="39.291" width="19.3696" height="10.6504" filterUnits="userSpaceOnUse" color-interpolation-filters="sRGB">
<feFlood flood-opacity="0" result="BackgroundImageFix"/>
<feColorMatrix in="SourceAlpha" type="matrix" values="0 0 0 0 0 0 0 0 0 0 0 0 0 0 0 0 0 0 127 0" result="hardAlpha"/>
<feOffset/>
<feColorMatrix type="matrix" values="0 0 0 0 0 0 0 0 0 0 0 0 0 0 0 0 0 0 0.1 0"/>
<feBlend mode="normal" in2="BackgroundImageFix" result="effect1_dropShadow_2180_2860"/>
<feColorMatrix in="SourceAlpha" type="matrix" values="0 0 0 0 0 0 0 0 0 0 0 0 0 0 0 0 0 0 127 0" result="hardAlpha"/>
<feOffset/>
<feGaussianBlur stdDeviation="0.5"/>
<feColorMatrix type="matrix" values="0 0 0 0 0 0 0 0 0 0 0 0 0 0 0 0 0 0 0.1 0"/>
<feBlend mode="normal" in2="effect1_dropShadow_2180_2860" result="effect2_dropShadow_2180_2860"/>
<feColorMatrix in="SourceAlpha" type="matrix" values="0 0 0 0 0 0 0 0 0 0 0 0 0 0 0 0 0 0 127 0" result="hardAlpha"/>
<feOffset dy="1"/>
<feGaussianBlur stdDeviation="0.5"/>
<feColorMatrix type="matrix" values="0 0 0 0 0 0 0 0 0 0 0 0 0 0 0 0 0 0 0.09 0"/>
<feBlend mode="normal" in2="effect2_dropShadow_2180_2860" result="effect3_dropShadow_2180_2860"/>
<feColorMatrix in="SourceAlpha" type="matrix" values="0 0 0 0 0 0 0 0 0 0 0 0 0 0 0 0 0 0 127 0" result="hardAlpha"/>
<feOffset dy="3"/>
<feGaussianBlur stdDeviation="1"/>
<feColorMatrix type="matrix" values="0 0 0 0 0 0 0 0 0 0 0 0 0 0 0 0 0 0 0.05 0"/>
<feBlend mode="normal" in2="effect3_dropShadow_2180_2860" result="effect4_dropShadow_2180_2860"/>
<feColorMatrix in="SourceAlpha" type="matrix" values="0 0 0 0 0 0 0 0 0 0 0 0 0 0 0 0 0 0 127 0" result="hardAlpha"/>
<feOffset dy="5"/>
<feGaussianBlur stdDeviation="1"/>
<feColorMatrix type="matrix" values="0 0 0 0 0 0 0 0 0 0 0 0 0 0 0 0 0 0 0.01 0"/>
<feBlend mode="normal" in2="effect4_dropShadow_2180_2860" result="effect5_dropShadow_2180_2860"/>
<feBlend mode="normal" in="SourceGraphic" in2="effect5_dropShadow_2180_2860" result="shape"/>
</filter>
<filter id="filter3_ddddd_2180_2860" x="64.6885" y="44.6299" width="17.3694" height="8.65039" filterUnits="userSpaceOnUse" color-interpolation-filters="sRGB">
<feFlood flood-opacity="0" result="BackgroundImageFix"/>
<feColorMatrix in="SourceAlpha" type="matrix" values="0 0 0 0 0 0 0 0 0 0 0 0 0 0 0 0 0 0 127 0" result="hardAlpha"/>
<feOffset/>
<feColorMatrix type="matrix" values="0 0 0 0 0 0 0 0 0 0 0 0 0 0 0 0 0 0 0.1 0"/>
<feBlend mode="normal" in2="BackgroundImageFix" result="effect1_dropShadow_2180_2860"/>
<feColorMatrix in="SourceAlpha" type="matrix" values="0 0 0 0 0 0 0 0 0 0 0 0 0 0 0 0 0 0 127 0" result="hardAlpha"/>
<feOffset/>
<feGaussianBlur stdDeviation="0.5"/>
<feColorMatrix type="matrix" values="0 0 0 0 0 0 0 0 0 0 0 0 0 0 0 0 0 0 0.1 0"/>
<feBlend mode="normal" in2="effect1_dropShadow_2180_2860" result="effect2_dropShadow_2180_2860"/>
<feColorMatrix in="SourceAlpha" type="matrix" values="0 0 0 0 0 0 0 0 0 0 0 0 0 0 0 0 0 0 127 0" result="hardAlpha"/>
<feOffset dy="1"/>
<feGaussianBlur stdDeviation="0.5"/>
<feColorMatrix type="matrix" values="0 0 0 0 0 0 0 0 0 0 0 0 0 0 0 0 0 0 0.09 0"/>
<feBlend mode="normal" in2="effect2_dropShadow_2180_2860" result="effect3_dropShadow_2180_2860"/>
<feColorMatrix in="SourceAlpha" type="matrix" values="0 0 0 0 0 0 0 0 0 0 0 0 0 0 0 0 0 0 127 0" result="hardAlpha"/>
<feOffset dy="2"/>
<feGaussianBlur stdDeviation="0.5"/>
<feColorMatrix type="matrix" values="0 0 0 0 0 0 0 0 0 0 0 0 0 0 0 0 0 0 0.05 0"/>
<feBlend mode="normal" in2="effect3_dropShadow_2180_2860" result="effect4_dropShadow_2180_2860"/>
<feColorMatrix in="SourceAlpha" type="matrix" values="0 0 0 0 0 0 0 0 0 0 0 0 0 0 0 0 0 0 127 0" result="hardAlpha"/>
<feOffset dy="4"/>
<feGaussianBlur stdDeviation="0.5"/>
<feColorMatrix type="matrix" values="0 0 0 0 0 0 0 0 0 0 0 0 0 0 0 0 0 0 0.01 0"/>
<feBlend mode="normal" in2="effect4_dropShadow_2180_2860" result="effect5_dropShadow_2180_2860"/>
<feBlend mode="normal" in="SourceGraphic" in2="effect5_dropShadow_2180_2860" result="shape"/>
</filter>
<filter id="filter4_ddddd_2180_2860" x="64.6885" y="51.04" width="17.3695" height="6.65039" filterUnits="userSpaceOnUse" color-interpolation-filters="sRGB">
<feFlood flood-opacity="0" result="BackgroundImageFix"/>
<feColorMatrix in="SourceAlpha" type="matrix" values="0 0 0 0 0 0 0 0 0 0 0 0 0 0 0 0 0 0 127 0" result="hardAlpha"/>
<feOffset/>
<feColorMatrix type="matrix" values="0 0 0 0 0 0 0 0 0 0 0 0 0 0 0 0 0 0 0.1 0"/>
<feBlend mode="normal" in2="BackgroundImageFix" result="effect1_dropShadow_2180_2860"/>
<feColorMatrix in="SourceAlpha" type="matrix" values="0 0 0 0 0 0 0 0 0 0 0 0 0 0 0 0 0 0 127 0" result="hardAlpha"/>
<feOffset/>
<feColorMatrix type="matrix" values="0 0 0 0 0 0 0 0 0 0 0 0 0 0 0 0 0 0 0.1 0"/>
<feBlend mode="normal" in2="effect1_dropShadow_2180_2860" result="effect2_dropShadow_2180_2860"/>
<feColorMatrix in="SourceAlpha" type="matrix" values="0 0 0 0 0 0 0 0 0 0 0 0 0 0 0 0 0 0 127 0" result="hardAlpha"/>
<feOffset dy="1"/>
<feGaussianBlur stdDeviation="0.5"/>
<feColorMatrix type="matrix" values="0 0 0 0 0 0 0 0 0 0 0 0 0 0 0 0 0 0 0.09 0"/>
<feBlend mode="normal" in2="effect2_dropShadow_2180_2860" result="effect3_dropShadow_2180_2860"/>
<feColorMatrix in="SourceAlpha" type="matrix" values="0 0 0 0 0 0 0 0 0 0 0 0 0 0 0 0 0 0 127 0" result="hardAlpha"/>
<feOffset dy="2"/>
<feGaussianBlur stdDeviation="0.5"/>
<feColorMatrix type="matrix" values="0 0 0 0 0 0 0 0 0 0 0 0 0 0 0 0 0 0 0.05 0"/>
<feBlend mode="normal" in2="effect3_dropShadow_2180_2860" result="effect4_dropShadow_2180_2860"/>
<feColorMatrix in="SourceAlpha" type="matrix" values="0 0 0 0 0 0 0 0 0 0 0 0 0 0 0 0 0 0 127 0" result="hardAlpha"/>
<feOffset dy="3"/>
<feGaussianBlur stdDeviation="0.5"/>
<feColorMatrix type="matrix" values="0 0 0 0 0 0 0 0 0 0 0 0 0 0 0 0 0 0 0.01 0"/>
<feBlend mode="normal" in2="effect4_dropShadow_2180_2860" result="effect5_dropShadow_2180_2860"/>
<feBlend mode="normal" in="SourceGraphic" in2="effect5_dropShadow_2180_2860" result="shape"/>
</filter>
<filter id="filter5_ddddd_2180_2860" x="64.6885" y="56.4746" width="17.3698" height="6.65039" filterUnits="userSpaceOnUse" color-interpolation-filters="sRGB">
<feFlood flood-opacity="0" result="BackgroundImageFix"/>
<feColorMatrix in="SourceAlpha" type="matrix" values="0 0 0 0 0 0 0 0 0 0 0 0 0 0 0 0 0 0 127 0" result="hardAlpha"/>
<feOffset/>
<feColorMatrix type="matrix" values="0 0 0 0 0 0 0 0 0 0 0 0 0 0 0 0 0 0 0.1 0"/>
<feBlend mode="normal" in2="BackgroundImageFix" result="effect1_dropShadow_2180_2860"/>
<feColorMatrix in="SourceAlpha" type="matrix" values="0 0 0 0 0 0 0 0 0 0 0 0 0 0 0 0 0 0 127 0" result="hardAlpha"/>
<feOffset/>
<feColorMatrix type="matrix" values="0 0 0 0 0 0 0 0 0 0 0 0 0 0 0 0 0 0 0.1 0"/>
<feBlend mode="normal" in2="effect1_dropShadow_2180_2860" result="effect2_dropShadow_2180_2860"/>
<feColorMatrix in="SourceAlpha" type="matrix" values="0 0 0 0 0 0 0 0 0 0 0 0 0 0 0 0 0 0 127 0" result="hardAlpha"/>
<feOffset dy="1"/>
<feGaussianBlur stdDeviation="0.5"/>
<feColorMatrix type="matrix" values="0 0 0 0 0 0 0 0 0 0 0 0 0 0 0 0 0 0 0.09 0"/>
<feBlend mode="normal" in2="effect2_dropShadow_2180_2860" result="effect3_dropShadow_2180_2860"/>
<feColorMatrix in="SourceAlpha" type="matrix" values="0 0 0 0 0 0 0 0 0 0 0 0 0 0 0 0 0 0 127 0" result="hardAlpha"/>
<feOffset dy="2"/>
<feGaussianBlur stdDeviation="0.5"/>
<feColorMatrix type="matrix" values="0 0 0 0 0 0 0 0 0 0 0 0 0 0 0 0 0 0 0.05 0"/>
<feBlend mode="normal" in2="effect3_dropShadow_2180_2860" result="effect4_dropShadow_2180_2860"/>
<feColorMatrix in="SourceAlpha" type="matrix" values="0 0 0 0 0 0 0 0 0 0 0 0 0 0 0 0 0 0 127 0" result="hardAlpha"/>
<feOffset dy="3"/>
<feGaussianBlur stdDeviation="0.5"/>
<feColorMatrix type="matrix" values="0 0 0 0 0 0 0 0 0 0 0 0 0 0 0 0 0 0 0.01 0"/>
<feBlend mode="normal" in2="effect4_dropShadow_2180_2860" result="effect5_dropShadow_2180_2860"/>
<feBlend mode="normal" in="SourceGraphic" in2="effect5_dropShadow_2180_2860" result="shape"/>
</filter>
<filter id="filter6_dddddi_2180_2860" x="73.6089" y="44.6123" width="4.67139" height="5.6709" filterUnits="userSpaceOnUse" color-interpolation-filters="sRGB">
<feFlood flood-opacity="0" result="BackgroundImageFix"/>
<feColorMatrix in="SourceAlpha" type="matrix" values="0 0 0 0 0 0 0 0 0 0 0 0 0 0 0 0 0 0 127 0" result="hardAlpha"/>
<feOffset/>
<feColorMatrix type="matrix" values="0 0 0 0 0 0 0 0 0 0 0 0 0 0 0 0 0 0 0.1 0"/>
<feBlend mode="normal" in2="BackgroundImageFix" result="effect1_dropShadow_2180_2860"/>
<feColorMatrix in="SourceAlpha" type="matrix" values="0 0 0 0 0 0 0 0 0 0 0 0 0 0 0 0 0 0 127 0" result="hardAlpha"/>
<feOffset/>
<feColorMatrix type="matrix" values="0 0 0 0 0 0 0 0 0 0 0 0 0 0 0 0 0 0 0.1 0"/>
<feBlend mode="normal" in2="effect1_dropShadow_2180_2860" result="effect2_dropShadow_2180_2860"/>
<feColorMatrix in="SourceAlpha" type="matrix" values="0 0 0 0 0 0 0 0 0 0 0 0 0 0 0 0 0 0 127 0" result="hardAlpha"/>
<feOffset/>
<feGaussianBlur stdDeviation="0.5"/>
<feColorMatrix type="matrix" values="0 0 0 0 0 0 0 0 0 0 0 0 0 0 0 0 0 0 0.09 0"/>
<feBlend mode="normal" in2="effect2_dropShadow_2180_2860" result="effect3_dropShadow_2180_2860"/>
<feColorMatrix in="SourceAlpha" type="matrix" values="0 0 0 0 0 0 0 0 0 0 0 0 0 0 0 0 0 0 127 0" result="hardAlpha"/>
<feOffset dy="1"/>
<feGaussianBlur stdDeviation="0.5"/>
<feColorMatrix type="matrix" values="0 0 0 0 0 0 0 0 0 0 0 0 0 0 0 0 0 0 0.05 0"/>
<feBlend mode="normal" in2="effect3_dropShadow_2180_2860" result="effect4_dropShadow_2180_2860"/>
<feColorMatrix in="SourceAlpha" type="matrix" values="0 0 0 0 0 0 0 0 0 0 0 0 0 0 0 0 0 0 127 0" result="hardAlpha"/>
<feOffset dy="1"/>
<feGaussianBlur stdDeviation="0.5"/>
<feColorMatrix type="matrix" values="0 0 0 0 0 0 0 0 0 0 0 0 0 0 0 0 0 0 0.01 0"/>
<feBlend mode="normal" in2="effect4_dropShadow_2180_2860" result="effect5_dropShadow_2180_2860"/>
<feBlend mode="normal" in="SourceGraphic" in2="effect5_dropShadow_2180_2860" result="shape"/>
<feColorMatrix in="SourceAlpha" type="matrix" values="0 0 0 0 0 0 0 0 0 0 0 0 0 0 0 0 0 0 127 0" result="hardAlpha"/>
<feOffset dx="0.2" dy="0.5"/>
<feGaussianBlur stdDeviation="0.25"/>
<feComposite in2="hardAlpha" operator="arithmetic" k2="-1" k3="1"/>
<feColorMatrix type="matrix" values="0 0 0 0 1 0 0 0 0 1 0 0 0 0 1 0 0 0 0.1 0"/>
<feBlend mode="normal" in2="shape" result="effect6_innerShadow_2180_2860"/>
</filter>
<filter id="filter7_dddddi_2180_2860" x="69.861" y="50.042" width="4.67139" height="5.6709" filterUnits="userSpaceOnUse" color-interpolation-filters="sRGB">
<feFlood flood-opacity="0" result="BackgroundImageFix"/>
<feColorMatrix in="SourceAlpha" type="matrix" values="0 0 0 0 0 0 0 0 0 0 0 0 0 0 0 0 0 0 127 0" result="hardAlpha"/>
<feOffset/>
<feColorMatrix type="matrix" values="0 0 0 0 0 0 0 0 0 0 0 0 0 0 0 0 0 0 0.1 0"/>
<feBlend mode="normal" in2="BackgroundImageFix" result="effect1_dropShadow_2180_2860"/>
<feColorMatrix in="SourceAlpha" type="matrix" values="0 0 0 0 0 0 0 0 0 0 0 0 0 0 0 0 0 0 127 0" result="hardAlpha"/>
<feOffset/>
<feColorMatrix type="matrix" values="0 0 0 0 0 0 0 0 0 0 0 0 0 0 0 0 0 0 0.1 0"/>
<feBlend mode="normal" in2="effect1_dropShadow_2180_2860" result="effect2_dropShadow_2180_2860"/>
<feColorMatrix in="SourceAlpha" type="matrix" values="0 0 0 0 0 0 0 0 0 0 0 0 0 0 0 0 0 0 127 0" result="hardAlpha"/>
<feOffset/>
<feGaussianBlur stdDeviation="0.5"/>
<feColorMatrix type="matrix" values="0 0 0 0 0 0 0 0 0 0 0 0 0 0 0 0 0 0 0.09 0"/>
<feBlend mode="normal" in2="effect2_dropShadow_2180_2860" result="effect3_dropShadow_2180_2860"/>
<feColorMatrix in="SourceAlpha" type="matrix" values="0 0 0 0 0 0 0 0 0 0 0 0 0 0 0 0 0 0 127 0" result="hardAlpha"/>
<feOffset dy="1"/>
<feGaussianBlur stdDeviation="0.5"/>
<feColorMatrix type="matrix" values="0 0 0 0 0 0 0 0 0 0 0 0 0 0 0 0 0 0 0.05 0"/>
<feBlend mode="normal" in2="effect3_dropShadow_2180_2860" result="effect4_dropShadow_2180_2860"/>
<feColorMatrix in="SourceAlpha" type="matrix" values="0 0 0 0 0 0 0 0 0 0 0 0 0 0 0 0 0 0 127 0" result="hardAlpha"/>
<feOffset dy="1"/>
<feGaussianBlur stdDeviation="0.5"/>
<feColorMatrix type="matrix" values="0 0 0 0 0 0 0 0 0 0 0 0 0 0 0 0 0 0 0.01 0"/>
<feBlend mode="normal" in2="effect4_dropShadow_2180_2860" result="effect5_dropShadow_2180_2860"/>
<feBlend mode="normal" in="SourceGraphic" in2="effect5_dropShadow_2180_2860" result="shape"/>
<feColorMatrix in="SourceAlpha" type="matrix" values="0 0 0 0 0 0 0 0 0 0 0 0 0 0 0 0 0 0 127 0" result="hardAlpha"/>
<feOffset dx="0.2" dy="0.5"/>
<feGaussianBlur stdDeviation="0.25"/>
<feComposite in2="hardAlpha" operator="arithmetic" k2="-1" k3="1"/>
<feColorMatrix type="matrix" values="0 0 0 0 1 0 0 0 0 1 0 0 0 0 1 0 0 0 0.1 0"/>
<feBlend mode="normal" in2="shape" result="effect6_innerShadow_2180_2860"/>
</filter>
<filter id="filter8_dddddi_2180_2860" x="73.5842" y="55.4736" width="4.67139" height="5.6709" filterUnits="userSpaceOnUse" color-interpolation-filters="sRGB">
<feFlood flood-opacity="0" result="BackgroundImageFix"/>
<feColorMatrix in="SourceAlpha" type="matrix" values="0 0 0 0 0 0 0 0 0 0 0 0 0 0 0 0 0 0 127 0" result="hardAlpha"/>
<feOffset/>
<feColorMatrix type="matrix" values="0 0 0 0 0 0 0 0 0 0 0 0 0 0 0 0 0 0 0.1 0"/>
<feBlend mode="normal" in2="BackgroundImageFix" result="effect1_dropShadow_2180_2860"/>
<feColorMatrix in="SourceAlpha" type="matrix" values="0 0 0 0 0 0 0 0 0 0 0 0 0 0 0 0 0 0 127 0" result="hardAlpha"/>
<feOffset/>
<feColorMatrix type="matrix" values="0 0 0 0 0 0 0 0 0 0 0 0 0 0 0 0 0 0 0.1 0"/>
<feBlend mode="normal" in2="effect1_dropShadow_2180_2860" result="effect2_dropShadow_2180_2860"/>
<feColorMatrix in="SourceAlpha" type="matrix" values="0 0 0 0 0 0 0 0 0 0 0 0 0 0 0 0 0 0 127 0" result="hardAlpha"/>
<feOffset/>
<feGaussianBlur stdDeviation="0.5"/>
<feColorMatrix type="matrix" values="0 0 0 0 0 0 0 0 0 0 0 0 0 0 0 0 0 0 0.09 0"/>
<feBlend mode="normal" in2="effect2_dropShadow_2180_2860" result="effect3_dropShadow_2180_2860"/>
<feColorMatrix in="SourceAlpha" type="matrix" values="0 0 0 0 0 0 0 0 0 0 0 0 0 0 0 0 0 0 127 0" result="hardAlpha"/>
<feOffset dy="1"/>
<feGaussianBlur stdDeviation="0.5"/>
<feColorMatrix type="matrix" values="0 0 0 0 0 0 0 0 0 0 0 0 0 0 0 0 0 0 0.05 0"/>
<feBlend mode="normal" in2="effect3_dropShadow_2180_2860" result="effect4_dropShadow_2180_2860"/>
<feColorMatrix in="SourceAlpha" type="matrix" values="0 0 0 0 0 0 0 0 0 0 0 0 0 0 0 0 0 0 127 0" result="hardAlpha"/>
<feOffset dy="1"/>
<feGaussianBlur stdDeviation="0.5"/>
<feColorMatrix type="matrix" values="0 0 0 0 0 0 0 0 0 0 0 0 0 0 0 0 0 0 0.01 0"/>
<feBlend mode="normal" in2="effect4_dropShadow_2180_2860" result="effect5_dropShadow_2180_2860"/>
<feBlend mode="normal" in="SourceGraphic" in2="effect5_dropShadow_2180_2860" result="shape"/>
<feColorMatrix in="SourceAlpha" type="matrix" values="0 0 0 0 0 0 0 0 0 0 0 0 0 0 0 0 0 0 127 0" result="hardAlpha"/>
<feOffset dx="0.2" dy="0.5"/>
<feGaussianBlur stdDeviation="0.25"/>
<feComposite in2="hardAlpha" operator="arithmetic" k2="-1" k3="1"/>
<feColorMatrix type="matrix" values="0 0 0 0 1 0 0 0 0 1 0 0 0 0 1 0 0 0 0.1 0"/>
<feBlend mode="normal" in2="shape" result="effect6_innerShadow_2180_2860"/>
</filter>
<filter id="filter9_dddddi_2180_2860" x="69.6963" y="39.291" width="4.67139" height="5.6709" filterUnits="userSpaceOnUse" color-interpolation-filters="sRGB">
<feFlood flood-opacity="0" result="BackgroundImageFix"/>
<feColorMatrix in="SourceAlpha" type="matrix" values="0 0 0 0 0 0 0 0 0 0 0 0 0 0 0 0 0 0 127 0" result="hardAlpha"/>
<feOffset/>
<feColorMatrix type="matrix" values="0 0 0 0 0 0 0 0 0 0 0 0 0 0 0 0 0 0 0.1 0"/>
<feBlend mode="normal" in2="BackgroundImageFix" result="effect1_dropShadow_2180_2860"/>
<feColorMatrix in="SourceAlpha" type="matrix" values="0 0 0 0 0 0 0 0 0 0 0 0 0 0 0 0 0 0 127 0" result="hardAlpha"/>
<feOffset/>
<feColorMatrix type="matrix" values="0 0 0 0 0 0 0 0 0 0 0 0 0 0 0 0 0 0 0.1 0"/>
<feBlend mode="normal" in2="effect1_dropShadow_2180_2860" result="effect2_dropShadow_2180_2860"/>
<feColorMatrix in="SourceAlpha" type="matrix" values="0 0 0 0 0 0 0 0 0 0 0 0 0 0 0 0 0 0 127 0" result="hardAlpha"/>
<feOffset/>
<feGaussianBlur stdDeviation="0.5"/>
<feColorMatrix type="matrix" values="0 0 0 0 0 0 0 0 0 0 0 0 0 0 0 0 0 0 0.09 0"/>
<feBlend mode="normal" in2="effect2_dropShadow_2180_2860" result="effect3_dropShadow_2180_2860"/>
<feColorMatrix in="SourceAlpha" type="matrix" values="0 0 0 0 0 0 0 0 0 0 0 0 0 0 0 0 0 0 127 0" result="hardAlpha"/>
<feOffset dy="1"/>
<feGaussianBlur stdDeviation="0.5"/>
<feColorMatrix type="matrix" values="0 0 0 0 0 0 0 0 0 0 0 0 0 0 0 0 0 0 0.05 0"/>
<feBlend mode="normal" in2="effect3_dropShadow_2180_2860" result="effect4_dropShadow_2180_2860"/>
<feColorMatrix in="SourceAlpha" type="matrix" values="0 0 0 0 0 0 0 0 0 0 0 0 0 0 0 0 0 0 127 0" result="hardAlpha"/>
<feOffset dy="1"/>
<feGaussianBlur stdDeviation="0.5"/>
<feColorMatrix type="matrix" values="0 0 0 0 0 0 0 0 0 0 0 0 0 0 0 0 0 0 0.01 0"/>
<feBlend mode="normal" in2="effect4_dropShadow_2180_2860" result="effect5_dropShadow_2180_2860"/>
<feBlend mode="normal" in="SourceGraphic" in2="effect5_dropShadow_2180_2860" result="shape"/>
<feColorMatrix in="SourceAlpha" type="matrix" values="0 0 0 0 0 0 0 0 0 0 0 0 0 0 0 0 0 0 127 0" result="hardAlpha"/>
<feOffset dx="0.2" dy="0.5"/>
<feGaussianBlur stdDeviation="0.25"/>
<feComposite in2="hardAlpha" operator="arithmetic" k2="-1" k3="1"/>
<feColorMatrix type="matrix" values="0 0 0 0 1 0 0 0 0 1 0 0 0 0 1 0 0 0 0.1 0"/>
<feBlend mode="normal" in2="shape" result="effect6_innerShadow_2180_2860"/>
</filter>
<linearGradient id="paint0_linear_2180_2860" x1="25.7852" y1="9.9966" x2="100.692" y2="149.193" gradientUnits="userSpaceOnUse">
<stop offset="0.0001" stop-color="#50E6FF"/>
<stop offset="0.623265" stop-color="#0078D4"/>
</linearGradient>
<linearGradient id="paint1_linear_2180_2860" x1="16.0867" y1="11.723" x2="83.6292" y2="99.1206" gradientUnits="userSpaceOnUse">
<stop stop-color="#007ED8"/>
<stop offset="0.915361" stop-color="#002D4C"/>
</linearGradient>
<linearGradient id="paint2_linear_2180_2860" x1="26.4004" y1="42.9194" x2="46.7581" y2="86.153" gradientUnits="userSpaceOnUse">
<stop stop-color="#007ED8"/>
<stop offset="0.7065" stop-color="#002D4C"/>
</linearGradient>
<linearGradient id="paint3_linear_2180_2860" x1="46.5921" y1="36.6997" x2="54.5454" y2="36.7901" gradientUnits="userSpaceOnUse">
<stop stop-color="#F0C70A"/>
<stop offset="0.335" stop-color="#3BA998"/>
<stop offset="0.675" stop-color="#0E91E2"/>
<stop offset="0.95" stop-color="#24ADF5"/>
</linearGradient>
<linearGradient id="paint4_linear_2180_2860" x1="45.9594" y1="39.6823" x2="55.8106" y2="39.9535" gradientUnits="userSpaceOnUse">
<stop stop-color="#FFAD55"/>
<stop offset="0.305" stop-color="#F77579"/>
<stop offset="0.625" stop-color="#E056A0"/>
<stop offset="1" stop-color="#B66FF0"/>
</linearGradient>
</defs>
</svg>
