<svg width="102" height="102" viewBox="0 0 102 102" fill="none" xmlns="http://www.w3.org/2000/svg">
<path d="M51.4999 97.8506C25.9033 97.8506 5.1488 77.106 5.1488 51.4995C5.1488 25.893 25.9033 5.14844 51.4999 5.14844C77.0964 5.14844 97.851 25.9029 97.851 51.4995C97.851 77.0961 77.0964 97.8506 51.4999 97.8506Z" fill="url(#paint0_linear_2180_2833)"/>
<path fill-rule="evenodd" clip-rule="evenodd" d="M96.9501 51.5C96.9501 76.6015 76.6016 96.95 51.5001 96.95C26.3987 96.95 6.05013 76.6015 6.05013 51.5C6.05013 26.3985 26.3987 6.05002 51.5001 6.05002C76.6016 6.05002 96.9501 26.3985 96.9501 51.5ZM51.5001 2.34668C78.6513 2.34668 100.653 24.3488 100.653 51.5C100.653 78.6512 78.6414 100.653 51.5001 100.653C24.349 100.653 2.3468 78.6413 2.3468 51.5C2.3468 24.3488 24.349 2.34668 51.5001 2.34668Z" fill="#F2F1F0"/>
<path d="M94.0175 51.4998C94.0175 74.9836 74.9837 94.0173 51.4999 94.0173C28.0161 94.0173 8.98236 74.9836 8.98236 51.4998C8.98236 28.016 28.0161 8.98224 51.4999 8.98224C74.9837 8.98224 94.0175 28.016 94.0175 51.4998ZM98.0208 51.4998C98.0208 25.8105 77.1892 4.97891 51.4999 4.97891C25.8007 4.97891 4.97903 25.8105 4.97903 51.4998C4.97903 77.1891 25.8106 98.0207 51.4999 98.0207C77.1892 98.0207 98.0208 77.1891 98.0208 51.4998Z" fill="url(#paint1_linear_2180_2833)" stroke="black" stroke-width="0.3" stroke-linejoin="round"/>
<path d="M51.1669 29.4697C50.1042 29.4823 49.0619 29.1787 48.1721 28.5974C47.2823 28.0161 46.5848 27.1834 46.1693 26.2052C45.7539 25.2269 45.6387 24.1474 45.8383 23.1035C46.0379 22.0596 46.5437 21.0985 47.2907 20.3425C48.0377 19.5865 48.9927 19.0698 50.0342 18.8578C51.0756 18.6457 52.1565 18.7481 53.1397 19.1518C54.1228 19.5556 54.9633 20.2423 55.5552 21.1251C56.147 22.0079 56.4634 23.0467 56.4635 24.1096C56.4663 25.521 55.9111 26.8765 54.919 27.8805C53.9269 28.8845 52.5783 29.4557 51.1669 29.4697ZM51.1669 20.8259C50.5233 20.8132 49.8907 21.0348 49.3493 21.3832C48.808 21.7316 48.3827 22.2334 48.1276 22.8245C47.8725 23.4156 47.7988 24.0691 47.9166 24.7021C48.0344 25.335 48.3379 25.9185 48.7886 26.3782C49.2393 26.8379 49.8165 27.153 50.4469 27.2833C51.0774 27.4137 51.7326 27.3534 52.3286 27.1101C52.9247 26.8667 53.4344 26.4511 53.7935 25.9168C54.1525 25.3824 54.3447 24.7533 54.3448 24.1096C54.3591 23.6834 54.2871 23.2588 54.1338 22.8609C53.9805 22.4631 53.7486 22.1 53.4521 21.7936C53.1556 21.4872 52.8009 21.2438 52.4083 21.0775C52.0157 20.9112 51.5933 20.8256 51.1669 20.8259Z" fill="#014D83"/>
<path d="M80.3294 29.7979H22.713V68.5262H80.3294V29.7979Z" fill="url(#paint2_linear_2180_2833)"/>
<path d="M21.6331 67.7109H81.3775C81.8523 67.7109 82.3079 67.8994 82.6437 68.2352C82.9794 68.5709 83.1681 69.0263 83.1681 69.5011C83.1681 69.9759 82.9794 70.4313 82.6437 70.7671C82.3079 71.1028 81.8523 71.2913 81.3775 71.2913H21.6331C21.3985 71.2927 21.1654 71.2477 20.9483 71.1589C20.7311 71.0701 20.5343 70.9392 20.3679 70.7738C20.2015 70.6084 20.0691 70.4119 19.979 70.1952C19.8889 69.9786 19.8424 69.7463 19.8424 69.5117C19.8424 69.0359 20.0315 68.5793 20.3669 68.2419C20.7023 67.9045 21.1573 67.7137 21.6331 67.7109V67.7109Z" fill="url(#paint3_linear_2180_2833)"/>
<path d="M80.3294 29.7979H22.713V68.5262H80.3294V29.7979Z" fill="url(#paint4_linear_2180_2833)"/>
<path d="M21.9611 25.1162H81.0496C81.6115 25.1162 82.1502 25.3396 82.5475 25.7369C82.9448 26.1342 83.1682 26.673 83.1682 27.2349V28.4108C83.1682 28.9727 82.9448 29.5117 82.5475 29.909C82.1502 30.3063 81.6115 30.5294 81.0496 30.5294H21.9508C21.3889 30.5294 20.8501 30.3063 20.4528 29.909C20.0555 29.5117 19.8321 28.9727 19.8321 28.4108V27.2561C19.8293 26.9752 19.8825 26.6967 19.9883 26.4365C20.0942 26.1763 20.2506 25.9397 20.4487 25.7405C20.6468 25.5414 20.8832 25.3837 21.1428 25.2766C21.4025 25.1694 21.6802 25.1148 21.9611 25.1162Z" fill="url(#paint5_linear_2180_2833)"/>
<path d="M21.6331 67.7109H81.3775C81.8523 67.7109 82.3079 67.8994 82.6437 68.2352C82.9794 68.5709 83.1681 69.0263 83.1681 69.5011C83.1681 69.9759 82.9794 70.4313 82.6437 70.7671C82.3079 71.1028 81.8523 71.2913 81.3775 71.2913H21.6331C21.3985 71.2927 21.1654 71.2477 20.9483 71.1589C20.7311 71.0701 20.5343 70.9392 20.3679 70.7738C20.2015 70.6084 20.0691 70.4119 19.979 70.1952C19.8889 69.9786 19.8424 69.7463 19.8424 69.5117C19.8424 69.0359 20.0315 68.5793 20.3669 68.2419C20.7023 67.9045 21.1573 67.7137 21.6331 67.7109V67.7109Z" fill="url(#paint6_linear_2180_2833)"/>
<path d="M78.0413 35.1482V34.5443C78.0413 34.1819 77.8972 33.8343 77.6409 33.5781C77.3847 33.3218 77.0371 33.1777 76.6747 33.1777H26.4631C26.2837 33.1777 26.1065 33.213 25.9407 33.2817C25.7749 33.3504 25.6238 33.4512 25.4969 33.5781C25.37 33.705 25.2697 33.8556 25.201 34.0214C25.1324 34.1871 25.0966 34.3648 25.0966 34.5443V63.2514C25.0966 63.4303 25.1322 63.6076 25.201 63.7728C25.2698 63.938 25.3709 64.0879 25.4979 64.214C25.625 64.34 25.776 64.4397 25.9417 64.5072C26.1075 64.5748 26.2842 64.6087 26.4631 64.6073H76.6851C76.8631 64.6073 77.0399 64.5723 77.2044 64.5041C77.3689 64.436 77.5181 64.3363 77.644 64.2103C77.7699 64.0844 77.8697 63.9349 77.9378 63.7704C78.006 63.6059 78.0413 63.4294 78.0413 63.2514V35.1482V35.1482Z" fill="white"/>
<path d="M65.0041 79.9599H37.9961L35.604 84.0823C35.5503 84.1748 35.4515 84.2317 35.3445 84.2317H33.7635C33.5366 84.2317 33.3919 83.9897 33.4991 83.7899L41.1221 69.5869L43.0017 70.6222L39.142 77.8089H63.8482L59.9885 70.6222L61.8782 69.607L69.5012 83.81C69.6084 84.0098 69.4636 84.2518 69.2368 84.2518H67.5748C67.466 84.2518 67.3658 84.193 67.3128 84.098L65.0041 79.9599Z" fill="#013153"/>
<path d="M52.527 51.1946V47.4642H50.6395V44.6701C50.6395 44.2837 50.5652 43.9196 50.4166 43.5777C50.268 43.2359 50.0673 42.9461 49.8147 42.686C49.5546 42.4333 49.2573 42.2327 48.9155 42.0915C48.5737 41.9429 48.2021 41.876 47.8083 41.876H41.1946V38.8367C41.477 38.6732 41.7074 38.4429 41.8783 38.1531C42.0492 37.8633 42.1384 37.5512 42.1384 37.2168C42.1384 36.9567 42.0864 36.7114 41.9898 36.4885C41.8932 36.2656 41.7594 36.0649 41.5811 35.9015C41.4102 35.7305 41.2095 35.5968 40.9792 35.5002C40.7488 35.4036 40.511 35.3516 40.2435 35.3516C39.976 35.3516 39.7307 35.3961 39.5078 35.5002C39.2774 35.5968 39.0842 35.7305 38.9059 35.9015C38.735 36.0724 38.5938 36.2656 38.4972 36.4885C38.4006 36.7114 38.3486 36.9567 38.3486 37.2168C38.3486 37.5512 38.4377 37.8558 38.6086 38.1531C38.7796 38.4429 39.0099 38.6732 39.2923 38.8367V41.876H32.6787C32.2848 41.876 31.9133 41.9503 31.5714 42.0915C31.2296 42.2401 30.9249 42.4408 30.6723 42.686C30.4122 42.9387 30.219 43.2359 30.0704 43.5777C29.9218 43.9196 29.8474 44.2837 29.8474 44.6701V47.4642H27.96V51.1871H29.8474V55.8464C29.8474 56.2328 29.9218 56.5969 30.0704 56.9387C30.219 57.2806 30.4196 57.5704 30.6723 57.8305C30.9324 58.0831 31.2296 58.2838 31.5714 58.425C31.9133 58.5736 32.2848 58.6405 32.6787 58.6405H37.4048H43.8996H47.8009C48.1947 58.6405 48.5662 58.5661 48.9081 58.425C49.2499 58.2763 49.5546 58.0757 49.8072 57.8305C50.0673 57.5778 50.2605 57.2806 50.4091 56.9387C50.5578 56.5969 50.6321 56.2328 50.6321 55.8464V51.1871H52.527V51.1946Z" fill="url(#paint7_linear_2180_2833)"/>
<path d="M37.6574 49.5899H35.7179V47.6504H37.6574V49.5899Z" fill="white"/>
<path d="M44.7691 49.5899H42.8296V47.6504H44.7691V49.5899Z" fill="white"/>
<path d="M36.3499 51.5293C36.87 52.0197 37.4645 52.3913 38.1333 52.6588C38.8021 52.9189 39.5081 53.0527 40.2437 53.0527C40.9794 53.0527 41.6854 52.9189 42.3542 52.6588C43.0229 52.3987 43.6174 52.0197 44.1376 51.5293L45.4083 52.748C44.7172 53.4019 43.9295 53.8998 43.0304 54.2491C42.1387 54.5983 41.2023 54.7692 40.2289 54.7692C39.2554 54.7692 38.3191 54.5983 37.4274 54.2491C36.5356 53.8998 35.7405 53.4019 35.0494 52.748L36.3499 51.5293Z" fill="white"/>
<g filter="url(#filter0_dddd_2180_2833)">
<path d="M74.9154 36.8828H56.1978C55.9266 36.8828 55.7041 37.1053 55.7041 37.3765V44.4547C55.7041 44.7259 55.9266 44.9484 56.1978 44.9484H74.9154C75.1866 44.9484 75.4091 44.7259 75.4091 44.4547V37.3765C75.4091 37.1053 75.1866 36.8828 74.9154 36.8828Z" fill="#7E7E7E"/>
<path d="M58.0954 38.9619H57.9216C57.8104 38.9619 57.72 39.0523 57.72 39.1636V39.24C57.72 39.3513 57.8104 39.4417 57.9216 39.4417H58.0954C58.2067 39.4417 58.2971 39.3513 58.2971 39.24V39.1636C58.2971 39.0454 58.2067 38.9619 58.0954 38.9619Z" fill="#D5F9FD"/>
<path d="M58.2971 40.1172H57.72V40.597H58.2971V40.1172Z" fill="#ACF3FD"/>
<path d="M58.2971 41.1738H57.72V41.6536H58.2971V41.1738Z" fill="#84ECFD"/>
<path d="M58.2971 42.335H57.72V42.8147H58.2971V42.335Z" fill="#50E6FF"/>
<path d="M61.3778 41.1738H59.8342V41.6536H61.3778V41.1738Z" fill="#84ECFD"/>
<path d="M67.3578 38.9551H60.078C59.9528 38.9551 59.8555 39.0524 59.8555 39.1776C59.8555 39.3027 59.9528 39.4001 60.078 39.4001H67.3648C67.4899 39.4001 67.5873 39.3027 67.5873 39.1776C67.5873 39.0524 67.483 38.9551 67.3578 38.9551Z" fill="#D5F9FD"/>
<path d="M69.7912 41.2021H62.1428C62.0176 41.2021 61.9203 41.2995 61.9203 41.4246C61.9203 41.5498 62.0176 41.6471 62.1428 41.6471H69.7912C69.9163 41.6471 70.0137 41.5498 70.0137 41.4246C70.0137 41.3064 69.9163 41.2021 69.7912 41.2021Z" fill="#84ECFD"/>
<path d="M64.9307 42.3691H60.1609C60.0357 42.3691 59.9384 42.4665 59.9384 42.5916C59.9384 42.7168 60.0357 42.8141 60.1609 42.8141H64.9307C65.0558 42.8141 65.1532 42.7168 65.1532 42.5916C65.1532 42.4734 65.0558 42.3691 64.9307 42.3691Z" fill="#50E6FF"/>
<path d="M74.9154 51.9922H56.1978C55.9266 51.9922 55.7041 52.2147 55.7041 52.4859V59.5641C55.7041 59.8352 55.9266 60.0577 56.1978 60.0577H74.9154C75.1866 60.0577 75.4091 59.8352 75.4091 59.5641V52.4859C75.4091 52.2077 75.1866 51.9922 74.9154 51.9922Z" fill="#282828"/>
<path d="M58.0954 54.0645H57.9216C57.8104 54.0645 57.72 54.1548 57.72 54.2661V54.3426C57.72 54.4538 57.8104 54.5442 57.9216 54.5442H58.0954C58.2067 54.5442 58.2971 54.4538 58.2971 54.3426V54.2661C58.2971 54.1548 58.2067 54.0645 58.0954 54.0645Z" fill="#0179CE"/>
<path d="M58.2971 55.2188H57.72V55.6985H58.2971V55.2188Z" fill="#016CB8"/>
<path d="M58.2971 56.2822H57.72V56.762H58.2971V56.2822Z" fill="#01538D"/>
<path d="M58.2971 57.4365H57.72V57.9163H58.2971V57.4365Z" fill="#01416E"/>
<path d="M61.3778 56.2822H59.8342V56.762H61.3778V56.2822Z" fill="#01538D"/>
<path d="M67.3578 54.0576H60.078C59.9528 54.0576 59.8555 54.155 59.8555 54.2801C59.8555 54.4053 59.9528 54.5026 60.078 54.5026H67.3648C67.4899 54.5026 67.5873 54.4053 67.5873 54.2801C67.5873 54.1619 67.483 54.0576 67.3578 54.0576Z" fill="#0179CE"/>
<path d="M69.7912 56.3105H62.1428C62.0176 56.3105 61.9203 56.4079 61.9203 56.533C61.9203 56.6582 62.0176 56.7555 62.1428 56.7555H69.7912C69.9163 56.7555 70.0137 56.6582 70.0137 56.533C70.0137 56.4079 69.9163 56.3105 69.7912 56.3105Z" fill="#01538D"/>
<path d="M64.9307 57.4785H60.1609C60.0357 57.4785 59.9384 57.5759 59.9384 57.701C59.9384 57.8262 60.0357 57.9235 60.1609 57.9235H64.9307C65.0558 57.9235 65.1532 57.8262 65.1532 57.701C65.1532 57.5759 65.0558 57.4785 64.9307 57.4785Z" fill="#01416E"/>
<path d="M74.9154 45.8457H56.1978C55.9266 45.8457 55.7041 46.0682 55.7041 46.3394V50.6364C55.7041 50.9075 55.9266 51.13 56.1978 51.13H74.9154C75.1866 51.13 75.4091 50.9075 75.4091 50.6364V46.3394C75.4091 46.0682 75.1866 45.8457 74.9154 45.8457Z" fill="#4F4F4F"/>
<path d="M58.0954 47.9189H57.9216C57.8104 47.9189 57.72 48.0093 57.72 48.1206V48.1971C57.72 48.3083 57.8104 48.3987 57.9216 48.3987H58.0954C58.2067 48.3987 58.2971 48.3083 58.2971 48.1971V48.1206C58.2971 48.0093 58.2067 47.9189 58.0954 47.9189Z" fill="#34C1F1"/>
<path d="M58.2971 49.0723H57.72V49.552H58.2971V49.0723Z" fill="#1497E2"/>
<path d="M67.3578 47.9111H60.078C59.9528 47.9111 59.8555 48.0085 59.8555 48.1336C59.8555 48.2588 59.9528 48.3561 60.078 48.3561H67.3648C67.4899 48.3561 67.5873 48.2588 67.5873 48.1336C67.5873 48.0154 67.483 47.9111 67.3578 47.9111Z" fill="#34C1F1"/>
</g>
<defs>
<filter id="filter0_dddd_2180_2833" x="54.7041" y="35.8828" width="23.705" height="32.1748" filterUnits="userSpaceOnUse" color-interpolation-filters="sRGB">
<feFlood flood-opacity="0" result="BackgroundImageFix"/>
<feColorMatrix in="SourceAlpha" type="matrix" values="0 0 0 0 0 0 0 0 0 0 0 0 0 0 0 0 0 0 127 0" result="hardAlpha"/>
<feOffset/>
<feGaussianBlur stdDeviation="0.5"/>
<feColorMatrix type="matrix" values="0 0 0 0 0 0 0 0 0 0 0 0 0 0 0 0 0 0 0.1 0"/>
<feBlend mode="normal" in2="BackgroundImageFix" result="effect1_dropShadow_2180_2833"/>
<feColorMatrix in="SourceAlpha" type="matrix" values="0 0 0 0 0 0 0 0 0 0 0 0 0 0 0 0 0 0 127 0" result="hardAlpha"/>
<feOffset dy="1"/>
<feGaussianBlur stdDeviation="0.5"/>
<feColorMatrix type="matrix" values="0 0 0 0 0 0 0 0 0 0 0 0 0 0 0 0 0 0 0.09 0"/>
<feBlend mode="normal" in2="effect1_dropShadow_2180_2833" result="effect2_dropShadow_2180_2833"/>
<feColorMatrix in="SourceAlpha" type="matrix" values="0 0 0 0 0 0 0 0 0 0 0 0 0 0 0 0 0 0 127 0" result="hardAlpha"/>
<feOffset dx="1" dy="3"/>
<feGaussianBlur stdDeviation="1"/>
<feColorMatrix type="matrix" values="0 0 0 0 0 0 0 0 0 0 0 0 0 0 0 0 0 0 0.05 0"/>
<feBlend mode="normal" in2="effect2_dropShadow_2180_2833" result="effect3_dropShadow_2180_2833"/>
<feColorMatrix in="SourceAlpha" type="matrix" values="0 0 0 0 0 0 0 0 0 0 0 0 0 0 0 0 0 0 127 0" result="hardAlpha"/>
<feOffset dx="1" dy="6"/>
<feGaussianBlur stdDeviation="1"/>
<feColorMatrix type="matrix" values="0 0 0 0 0 0 0 0 0 0 0 0 0 0 0 0 0 0 0.01 0"/>
<feBlend mode="normal" in2="effect3_dropShadow_2180_2833" result="effect4_dropShadow_2180_2833"/>
<feBlend mode="normal" in="SourceGraphic" in2="effect4_dropShadow_2180_2833" result="shape"/>
</filter>
<linearGradient id="paint0_linear_2180_2833" x1="25.7852" y1="9.9966" x2="100.692" y2="149.193" gradientUnits="userSpaceOnUse">
<stop offset="0.0001" stop-color="#50E6FF"/>
<stop offset="0.623265" stop-color="#0078D4"/>
</linearGradient>
<linearGradient id="paint1_linear_2180_2833" x1="16.0867" y1="11.723" x2="83.6292" y2="99.1206" gradientUnits="userSpaceOnUse">
<stop stop-color="#007ED8"/>
<stop offset="0.915361" stop-color="#002D4C"/>
</linearGradient>
<linearGradient id="paint2_linear_2180_2833" x1="51.5159" y1="68.5262" x2="51.5159" y2="29.7979" gradientUnits="userSpaceOnUse">
<stop stop-color="#D3E9F9"/>
<stop offset="1" stop-color="#F1F9F9"/>
</linearGradient>
<linearGradient id="paint3_linear_2180_2833" x1="524174" y1="20627.4" x2="524174" y2="20615.3" gradientUnits="userSpaceOnUse">
<stop stop-color="#0799BE"/>
<stop offset="1" stop-color="#016E97"/>
</linearGradient>
<linearGradient id="paint4_linear_2180_2833" x1="51.5159" y1="68.5262" x2="51.5159" y2="29.7979" gradientUnits="userSpaceOnUse">
<stop stop-color="#D3E9F9"/>
<stop offset="1" stop-color="#F1F9F9"/>
</linearGradient>
<linearGradient id="paint5_linear_2180_2833" x1="524260" y1="37191.5" x2="524260" y2="37169.6" gradientUnits="userSpaceOnUse">
<stop stop-color="#2E7BBF"/>
<stop offset="0.71" stop-color="#092D4C"/>
</linearGradient>
<linearGradient id="paint6_linear_2180_2833" x1="524174" y1="20627.4" x2="524174" y2="20615.3" gradientUnits="userSpaceOnUse">
<stop stop-color="#2E7BBF"/>
<stop offset="0.71" stop-color="#092D4C"/>
</linearGradient>
<linearGradient id="paint7_linear_2180_2833" x1="31.3192" y1="34.9976" x2="50.7067" y2="76.1709" gradientUnits="userSpaceOnUse">
<stop stop-color="#007ED8"/>
<stop offset="0.7065" stop-color="#002D4C"/>
</linearGradient>
</defs>
</svg>
