<svg width="102" height="103" viewBox="0 0 102 103" fill="none" xmlns="http://www.w3.org/2000/svg">
<g clip-path="url(#clip0_2160_958)">
<path d="M50.7067 98.2754C25.1101 98.2754 4.35559 77.5308 4.35559 51.9243C4.35559 26.3178 25.1101 5.57324 50.7067 5.57324C76.3032 5.57324 97.0577 26.3277 97.0577 51.9243C97.0577 77.5209 76.3032 98.2754 50.7067 98.2754Z" fill="url(#paint0_linear_2160_958)"/>
<path fill-rule="evenodd" clip-rule="evenodd" d="M96.1569 51.9248C96.1569 77.0263 75.8084 97.3748 50.7069 97.3748C25.6054 97.3748 5.25692 77.0263 5.25692 51.9248C5.25692 26.8233 25.6054 6.47482 50.7069 6.47482C75.8084 6.47482 96.1569 26.8233 96.1569 51.9248ZM50.7069 2.77148C77.8581 2.77148 99.8603 24.7736 99.8603 51.9248C99.8603 79.076 77.8482 101.078 50.7069 101.078C23.5557 101.078 1.55359 79.0661 1.55359 51.9248C1.55359 24.7736 23.5557 2.77148 50.7069 2.77148Z" fill="#F2F1F0"/>
<path fill-rule="evenodd" clip-rule="evenodd" d="M93.3742 51.9246C93.3742 75.4913 74.2734 94.5921 50.7067 94.5921C27.14 94.5921 8.03915 75.4913 8.03915 51.9246C8.03915 28.3579 27.14 9.25705 50.7067 9.25705C74.2734 9.25705 93.3742 28.3579 93.3742 51.9246ZM50.7067 5.55371C76.3132 5.55371 97.0776 26.3181 97.0776 51.9246C97.0776 77.5311 76.3132 98.2955 50.7067 98.2955C25.1002 98.2955 4.33582 77.5311 4.33582 51.9246C4.33582 26.3181 25.0903 5.55371 50.7067 5.55371Z" fill="url(#paint1_radial_2160_958)"/>
<path d="M83.945 47.2145C84.6984 52.5615 84.1411 58.0805 82.3485 63.1778C79.3517 71.7479 73.2017 78.636 65.0249 82.5683C56.848 86.5007 47.7621 87.0142 39.2395 84.0849L40.3008 81.05L32.4634 82.5288L37.6683 88.5784L38.6408 85.7972C47.6164 88.8848 57.2585 88.3218 65.8084 84.1946C74.4223 80.0591 80.9056 72.7996 84.0607 63.7765C85.9483 58.4075 86.5282 52.5913 85.7425 46.9586C84.9569 41.3258 82.7994 35.8945 79.5013 31.2539C79.3853 31.0914 79.229 30.9859 79.0568 30.9257C78.7851 30.8307 78.478 30.8656 78.2326 31.0442C77.8246 31.3387 77.7283 31.9049 78.0137 32.3097C81.1392 36.7171 83.1916 41.8676 83.9327 47.2204L83.945 47.2145Z" fill="url(#paint2_linear_2160_958)"/>
<path d="M16.5323 40.1629C14.8596 44.9463 14.2193 49.9177 14.6492 54.9686C15.0733 60.0072 16.5326 64.8182 18.9901 69.2462C19.2325 69.6868 19.7888 69.8406 20.2203 69.595C20.6609 69.3526 20.8148 68.7963 20.5692 68.3648C18.2359 64.1632 16.8518 59.6022 16.4514 54.8159C16.0509 50.0295 16.6483 45.2972 18.2413 40.7707C21.2381 32.2005 27.4004 25.3066 35.5835 21.3561C43.3478 17.615 52.0564 16.9594 60.2573 19.4712L59.2277 22.4155L67.0683 20.9276L61.8602 14.8872L60.856 17.759C52.2021 15.0888 42.9953 15.7736 34.7909 19.7268C26.1707 23.8803 19.6874 31.1398 16.5291 40.172L16.5323 40.1629Z" fill="url(#paint3_linear_2160_958)"/>
<g filter="url(#filter0_ddddd_2160_958)">
<path d="M80.2094 30.945V30.0283C80.2094 28.8933 80.0719 27.9766 78.4816 27.9766H39.6855C38.0953 27.9766 37.5605 28.8933 37.5605 30.0283V31.0469V31.9781V60.4584C37.5605 61.5934 38.0953 62.5102 39.6855 62.5102H78.502C80.0923 62.5102 80.2298 61.5934 80.2298 60.4584V31.0469C80.2298 31.0105 80.2094 30.9814 80.2094 30.945Z" fill="#ECECEC"/>
</g>
<path d="M52.903 32.5303H44.0393C42.9347 32.5303 42.0393 33.4257 42.0393 34.5303V35.3065H52.903V32.5303Z" fill="#6AB7FC"/>
<rect width="10.8637" height="2.77627" transform="matrix(-1 0 0 1 64.3248 32.5303)" fill="#3183F2"/>
<path d="M75.7476 34.5303C75.7476 33.4257 74.8521 32.5303 73.7476 32.5303H64.8839V35.3065H75.7476V34.5303Z" fill="url(#paint4_linear_2160_958)"/>
<rect width="10.8637" height="2.77627" transform="matrix(-1 0 0 1 52.903 35.8828)" fill="#7E7E7E"/>
<rect width="10.8637" height="2.77627" transform="matrix(-1 0 0 1 64.3243 35.8828)" fill="#4F4F4F"/>
<rect width="10.8637" height="2.77627" transform="matrix(-1 0 0 1 75.7476 35.8828)" fill="#282828"/>
<rect width="10.8637" height="0.715118" transform="matrix(-1 0 0 1 75.7476 35.8828)" fill="#1D436A"/>
<rect width="10.8637" height="2.77627" transform="matrix(-1 0 0 1 52.903 39.1406)" fill="#7E7E7E"/>
<rect width="10.8637" height="2.77627" transform="matrix(-1 0 0 1 64.3243 39.1406)" fill="#4F4F4F"/>
<rect width="10.8637" height="2.77627" transform="matrix(-1 0 0 1 75.7476 39.1406)" fill="#282828"/>
<rect width="10.8637" height="2.77627" transform="matrix(-1 0 0 1 52.903 42.2959)" fill="#7E7E7E"/>
<rect width="10.8637" height="2.77627" transform="matrix(-1 0 0 1 64.3243 42.2959)" fill="#4F4F4F"/>
<rect width="10.8637" height="2.77627" transform="matrix(-1 0 0 1 75.7476 42.2959)" fill="#282828"/>
<rect width="10.8637" height="0.651739" transform="matrix(-1 0 0 1 75.7476 42.2959)" fill="#1D436A"/>
<rect width="10.8637" height="2.77627" transform="matrix(-1 0 0 1 52.903 45.5488)" fill="#7E7E7E"/>
<rect width="10.8637" height="2.77627" transform="matrix(-1 0 0 1 64.3243 45.5488)" fill="#4F4F4F"/>
<rect width="10.8637" height="2.77627" transform="matrix(-1 0 0 1 75.7476 45.5488)" fill="#282828"/>
<rect width="10.8637" height="2.77627" transform="matrix(-1 0 0 1 52.903 48.7686)" fill="#7E7E7E"/>
<rect width="10.8637" height="2.77627" transform="matrix(-1 0 0 1 64.3243 48.7686)" fill="#4F4F4F"/>
<rect width="10.8637" height="2.77627" transform="matrix(-1 0 0 1 75.7476 48.7686)" fill="#282828"/>
<rect width="10.8637" height="2.77627" transform="matrix(-1 0 0 1 52.903 51.9238)" fill="#7E7E7E"/>
<rect width="10.8637" height="2.77627" transform="matrix(-1 0 0 1 64.3243 51.9238)" fill="#4F4F4F"/>
<rect width="10.8637" height="2.77627" transform="matrix(-1 0 0 1 75.7476 51.9238)" fill="#282828"/>
<path d="M52.903 55.1807H42.0393V55.9569C42.0393 57.0615 42.9347 57.9569 44.0393 57.9569H52.903V55.1807Z" fill="#7E7E7E"/>
<rect width="10.8637" height="2.77627" transform="matrix(-1 0 0 1 64.3243 55.1807)" fill="#4F4F4F"/>
<path d="M75.7476 55.1807H64.8839V57.9569H73.7476C74.8521 57.9569 75.7476 57.0615 75.7476 55.9569V55.1807Z" fill="#282828"/>
<g filter="url(#filter1_ddddd_2160_958)">
<path d="M60.9592 46.2077V45.291C60.9592 44.156 60.8216 43.2393 59.2314 43.2393H20.4353C18.845 43.2393 18.3103 44.156 18.3103 45.291V46.3096V47.2408V72.2751C18.3103 73.4101 18.845 74.3268 20.4353 74.3268H59.2518C60.842 74.3268 60.9796 73.4101 60.9796 72.2751V46.3096C60.9796 46.2732 60.9592 46.2441 60.9592 46.2077Z" fill="white"/>
</g>
<path d="M50.7067 98.2754C25.1101 98.2754 4.35559 77.5308 4.35559 51.9243C4.35559 26.3178 25.1101 5.57324 50.7067 5.57324C76.3032 5.57324 97.0577 26.3277 97.0577 51.9243C97.0577 77.5209 76.3032 98.2754 50.7067 98.2754Z" fill="url(#paint5_linear_2160_958)"/>
<path fill-rule="evenodd" clip-rule="evenodd" d="M96.1569 51.9248C96.1569 77.0263 75.8084 97.3748 50.7069 97.3748C25.6054 97.3748 5.25692 77.0263 5.25692 51.9248C5.25692 26.8233 25.6054 6.47482 50.7069 6.47482C75.8084 6.47482 96.1569 26.8233 96.1569 51.9248ZM50.7069 2.77148C77.8581 2.77148 99.8603 24.7736 99.8603 51.9248C99.8603 79.076 77.8482 101.078 50.7069 101.078C23.5557 101.078 1.55359 79.0661 1.55359 51.9248C1.55359 24.7736 23.5557 2.77148 50.7069 2.77148Z" fill="#F2F1F0"/>
<path fill-rule="evenodd" clip-rule="evenodd" d="M93.3742 51.9246C93.3742 75.4913 74.2734 94.5921 50.7067 94.5921C27.14 94.5921 8.03915 75.4913 8.03915 51.9246C8.03915 28.3579 27.14 9.25705 50.7067 9.25705C74.2734 9.25705 93.3742 28.3579 93.3742 51.9246ZM50.7067 5.55371C76.3132 5.55371 97.0776 26.3181 97.0776 51.9246C97.0776 77.5311 76.3132 98.2955 50.7067 98.2955C25.1002 98.2955 4.33582 77.5311 4.33582 51.9246C4.33582 26.3181 25.0903 5.55371 50.7067 5.55371Z" fill="url(#paint6_linear_2160_958)"/>
<path d="M80.3856 68.4016C77.7952 73.1395 74.051 77.2323 69.5682 80.2489C62.0448 85.3309 52.9978 87.1801 44.0914 85.4483C35.1849 83.7165 27.592 78.6999 22.5078 71.2591L25.172 69.4594L18.0037 65.9628L18.5632 73.9237L21.0048 72.2744C26.3576 80.1129 34.426 85.422 43.7481 87.2205C53.1263 89.0506 62.6625 87.1026 70.5835 81.752C75.3049 78.5742 79.2447 74.2567 81.98 69.2703C84.7153 64.284 86.2301 58.6396 86.3578 52.9478C86.3619 52.7482 86.2996 52.5702 86.1975 52.4191C86.0364 52.1805 85.7692 52.0251 85.4658 52.0216C84.9626 52.014 84.5471 52.4105 84.5342 52.9057C84.4074 58.3074 82.976 63.6637 80.3723 68.3991L80.3856 68.4016Z" fill="url(#paint7_radial_2160_958)"/>
<path d="M30.5398 22.4714C26.3407 25.3079 22.857 28.912 20.1841 33.2192C17.5138 37.513 15.8098 42.2429 15.135 47.2619C15.0662 47.7601 15.4203 48.2158 15.9131 48.2766C16.4113 48.3455 16.867 47.9913 16.9279 47.4985C17.567 42.7352 19.182 38.2508 21.7205 34.1734C24.259 30.0959 27.5654 26.658 31.5472 23.9799C39.0705 18.8978 48.1309 17.0512 57.0532 18.7723C65.5146 20.411 72.8898 25.0882 77.9654 32.002L75.3808 33.748L82.5571 37.2392L81.9896 29.2837L79.4685 30.9867C74.1242 23.6752 66.3321 18.7237 57.3911 16.9921C47.997 15.1727 38.4608 17.1207 30.5318 22.4768L30.5398 22.4714Z" fill="url(#paint8_radial_2160_958)"/>
<g filter="url(#filter2_d_2160_958)">
<circle cx="50.7067" cy="51.9243" r="26.395" fill="white"/>
</g>
<g filter="url(#filter3_dddd_2160_958)">
<path d="M70.3131 18.7188H55.5776C53.4641 18.7188 51.7284 20.4544 51.7284 22.5679V28.5897C51.7284 30.7032 53.4641 32.4389 55.5776 32.4389H59.5212V35.4852C59.5212 35.7449 59.84 35.8748 60.0171 35.6859L63.2642 32.4389H70.3013C72.4148 32.4389 74.1505 30.7032 74.1505 28.5897V22.5679C74.1505 20.4426 72.4267 18.7188 70.3131 18.7188Z" fill="white"/>
</g>
<path d="M67.6799 24.2092H58.2105C57.8798 24.2092 57.6083 23.9377 57.6083 23.6071C57.6083 23.2765 57.8798 23.0049 58.2105 23.0049H67.6799C68.0105 23.0049 68.2821 23.2765 68.2821 23.6071C68.2821 23.9377 68.0105 24.2092 67.6799 24.2092Z" fill="url(#paint9_linear_2160_958)"/>
<path d="M67.6799 27.0422H58.2105C57.8798 27.0422 57.6083 26.7707 57.6083 26.4401C57.6083 26.1095 57.8798 25.8379 58.2105 25.8379H67.6799C68.0105 25.8379 68.2821 26.1095 68.2821 26.4401C68.2821 26.7825 68.0105 27.0422 67.6799 27.0422Z" fill="url(#paint10_linear_2160_958)"/>
<path d="M67.2365 56.5544V51.5344H64.6965V47.7744C64.6965 47.2544 64.5965 46.7644 64.3965 46.3044C64.1965 45.8444 63.9265 45.4544 63.5865 45.1044C63.2365 44.7644 62.8365 44.4944 62.3765 44.3044C61.9165 44.1044 61.4165 44.0144 60.8865 44.0144H51.9865V39.9244C52.3665 39.7044 52.6765 39.3944 52.9065 39.0044C53.1365 38.6144 53.2565 38.1944 53.2565 37.7444C53.2565 37.3944 53.1865 37.0644 53.0565 36.7644C52.9265 36.4644 52.7465 36.1944 52.5065 35.9744C52.2765 35.7444 52.0065 35.5644 51.6965 35.4344C51.3865 35.3044 51.0665 35.2344 50.7065 35.2344C50.3465 35.2344 50.0165 35.2944 49.7165 35.4344C49.4065 35.5644 49.1465 35.7444 48.9065 35.9744C48.6765 36.2044 48.4865 36.4644 48.3565 36.7644C48.2265 37.0644 48.1565 37.3944 48.1565 37.7444C48.1565 38.1944 48.2765 38.6044 48.5065 39.0044C48.7365 39.3944 49.0465 39.7044 49.4265 39.9244V44.0144H40.5265C39.9965 44.0144 39.4965 44.1144 39.0365 44.3044C38.5765 44.5044 38.1665 44.7744 37.8265 45.1044C37.4765 45.4444 37.2165 45.8444 37.0165 46.3044C36.8165 46.7644 36.7165 47.2544 36.7165 47.7744V51.5344H34.1765V56.5444H36.7165V62.8144C36.7165 63.3344 36.8165 63.8244 37.0165 64.2844C37.2165 64.7444 37.4865 65.1344 37.8265 65.4844C38.1765 65.8244 38.5765 66.0944 39.0365 66.2844C39.4965 66.4844 39.9965 66.5744 40.5265 66.5744H46.8865H55.6265H60.8765C61.4065 66.5744 61.9065 66.4744 62.3665 66.2844C62.8265 66.0844 63.2365 65.8144 63.5765 65.4844C63.9265 65.1444 64.1865 64.7444 64.3865 64.2844C64.5865 63.8244 64.6865 63.3344 64.6865 62.8144V56.5444H67.2365V56.5544Z" fill="url(#paint11_linear_2160_958)"/>
<path d="M47.2265 54.3942H44.6165V51.7842H47.2265V54.3942Z" fill="white"/>
<path d="M56.7963 54.3942H54.1863V51.7842H56.7963V54.3942Z" fill="white"/>
<path d="M45.4666 57.0039C46.1666 57.6639 46.9666 58.1639 47.8666 58.5239C48.7666 58.8739 49.7166 59.0539 50.7066 59.0539C51.6966 59.0539 52.6466 58.8739 53.5466 58.5239C54.4466 58.1739 55.2466 57.6639 55.9466 57.0039L57.6566 58.6439C56.7266 59.5239 55.6666 60.1939 54.4566 60.6639C53.2566 61.1339 51.9966 61.3639 50.6866 61.3639C49.3766 61.3639 48.1166 61.1339 46.9166 60.6639C45.7166 60.1939 44.6466 59.5239 43.7166 58.6439L45.4666 57.0039Z" fill="white"/>
</g>
<defs>
<filter id="filter0_ddddd_2160_958" x="21.5605" y="23.9766" width="74.6693" height="94.5332" filterUnits="userSpaceOnUse" color-interpolation-filters="sRGB">
<feFlood flood-opacity="0" result="BackgroundImageFix"/>
<feColorMatrix in="SourceAlpha" type="matrix" values="0 0 0 0 0 0 0 0 0 0 0 0 0 0 0 0 0 0 127 0" result="hardAlpha"/>
<feOffset/>
<feColorMatrix type="matrix" values="0 0 0 0 0 0 0 0 0 0 0 0 0 0 0 0 0 0 0.1 0"/>
<feBlend mode="normal" in2="BackgroundImageFix" result="effect1_dropShadow_2160_958"/>
<feColorMatrix in="SourceAlpha" type="matrix" values="0 0 0 0 0 0 0 0 0 0 0 0 0 0 0 0 0 0 127 0" result="hardAlpha"/>
<feOffset dy="2"/>
<feGaussianBlur stdDeviation="3"/>
<feColorMatrix type="matrix" values="0 0 0 0 0 0 0 0 0 0 0 0 0 0 0 0 0 0 0.1 0"/>
<feBlend mode="normal" in2="effect1_dropShadow_2160_958" result="effect2_dropShadow_2160_958"/>
<feColorMatrix in="SourceAlpha" type="matrix" values="0 0 0 0 0 0 0 0 0 0 0 0 0 0 0 0 0 0 127 0" result="hardAlpha"/>
<feOffset dy="10"/>
<feGaussianBlur stdDeviation="5"/>
<feColorMatrix type="matrix" values="0 0 0 0 0 0 0 0 0 0 0 0 0 0 0 0 0 0 0.09 0"/>
<feBlend mode="normal" in2="effect2_dropShadow_2160_958" result="effect3_dropShadow_2160_958"/>
<feColorMatrix in="SourceAlpha" type="matrix" values="0 0 0 0 0 0 0 0 0 0 0 0 0 0 0 0 0 0 127 0" result="hardAlpha"/>
<feOffset dy="22"/>
<feGaussianBlur stdDeviation="7"/>
<feColorMatrix type="matrix" values="0 0 0 0 0 0 0 0 0 0 0 0 0 0 0 0 0 0 0.05 0"/>
<feBlend mode="normal" in2="effect3_dropShadow_2160_958" result="effect4_dropShadow_2160_958"/>
<feColorMatrix in="SourceAlpha" type="matrix" values="0 0 0 0 0 0 0 0 0 0 0 0 0 0 0 0 0 0 127 0" result="hardAlpha"/>
<feOffset dy="40"/>
<feGaussianBlur stdDeviation="8"/>
<feColorMatrix type="matrix" values="0 0 0 0 0 0 0 0 0 0 0 0 0 0 0 0 0 0 0.01 0"/>
<feBlend mode="normal" in2="effect4_dropShadow_2160_958" result="effect5_dropShadow_2160_958"/>
<feBlend mode="normal" in="SourceGraphic" in2="effect5_dropShadow_2160_958" result="shape"/>
</filter>
<filter id="filter1_ddddd_2160_958" x="2.3103" y="39.2393" width="74.6693" height="91.0879" filterUnits="userSpaceOnUse" color-interpolation-filters="sRGB">
<feFlood flood-opacity="0" result="BackgroundImageFix"/>
<feColorMatrix in="SourceAlpha" type="matrix" values="0 0 0 0 0 0 0 0 0 0 0 0 0 0 0 0 0 0 127 0" result="hardAlpha"/>
<feOffset/>
<feColorMatrix type="matrix" values="0 0 0 0 0 0 0 0 0 0 0 0 0 0 0 0 0 0 0.1 0"/>
<feBlend mode="normal" in2="BackgroundImageFix" result="effect1_dropShadow_2160_958"/>
<feColorMatrix in="SourceAlpha" type="matrix" values="0 0 0 0 0 0 0 0 0 0 0 0 0 0 0 0 0 0 127 0" result="hardAlpha"/>
<feOffset dy="2"/>
<feGaussianBlur stdDeviation="3"/>
<feColorMatrix type="matrix" values="0 0 0 0 0 0 0 0 0 0 0 0 0 0 0 0 0 0 0.1 0"/>
<feBlend mode="normal" in2="effect1_dropShadow_2160_958" result="effect2_dropShadow_2160_958"/>
<feColorMatrix in="SourceAlpha" type="matrix" values="0 0 0 0 0 0 0 0 0 0 0 0 0 0 0 0 0 0 127 0" result="hardAlpha"/>
<feOffset dy="10"/>
<feGaussianBlur stdDeviation="5"/>
<feColorMatrix type="matrix" values="0 0 0 0 0 0 0 0 0 0 0 0 0 0 0 0 0 0 0.09 0"/>
<feBlend mode="normal" in2="effect2_dropShadow_2160_958" result="effect3_dropShadow_2160_958"/>
<feColorMatrix in="SourceAlpha" type="matrix" values="0 0 0 0 0 0 0 0 0 0 0 0 0 0 0 0 0 0 127 0" result="hardAlpha"/>
<feOffset dy="22"/>
<feGaussianBlur stdDeviation="7"/>
<feColorMatrix type="matrix" values="0 0 0 0 0 0 0 0 0 0 0 0 0 0 0 0 0 0 0.05 0"/>
<feBlend mode="normal" in2="effect3_dropShadow_2160_958" result="effect4_dropShadow_2160_958"/>
<feColorMatrix in="SourceAlpha" type="matrix" values="0 0 0 0 0 0 0 0 0 0 0 0 0 0 0 0 0 0 127 0" result="hardAlpha"/>
<feOffset dy="40"/>
<feGaussianBlur stdDeviation="8"/>
<feColorMatrix type="matrix" values="0 0 0 0 0 0 0 0 0 0 0 0 0 0 0 0 0 0 0.01 0"/>
<feBlend mode="normal" in2="effect4_dropShadow_2160_958" result="effect5_dropShadow_2160_958"/>
<feBlend mode="normal" in="SourceGraphic" in2="effect5_dropShadow_2160_958" result="shape"/>
</filter>
<filter id="filter2_d_2160_958" x="20.3118" y="25.5293" width="60.7899" height="60.79" filterUnits="userSpaceOnUse" color-interpolation-filters="sRGB">
<feFlood flood-opacity="0" result="BackgroundImageFix"/>
<feColorMatrix in="SourceAlpha" type="matrix" values="0 0 0 0 0 0 0 0 0 0 0 0 0 0 0 0 0 0 127 0" result="hardAlpha"/>
<feOffset dy="4"/>
<feGaussianBlur stdDeviation="2"/>
<feComposite in2="hardAlpha" operator="out"/>
<feColorMatrix type="matrix" values="0 0 0 0 0 0 0 0 0 0 0 0 0 0 0 0 0 0 0.25 0"/>
<feBlend mode="normal" in2="BackgroundImageFix" result="effect1_dropShadow_2160_958"/>
<feBlend mode="normal" in="SourceGraphic" in2="effect1_dropShadow_2160_958" result="shape"/>
</filter>
<filter id="filter3_dddd_2160_958" x="47.7284" y="18.7188" width="30.4221" height="31.0566" filterUnits="userSpaceOnUse" color-interpolation-filters="sRGB">
<feFlood flood-opacity="0" result="BackgroundImageFix"/>
<feColorMatrix in="SourceAlpha" type="matrix" values="0 0 0 0 0 0 0 0 0 0 0 0 0 0 0 0 0 0 127 0" result="hardAlpha"/>
<feOffset dy="1"/>
<feGaussianBlur stdDeviation="0.5"/>
<feColorMatrix type="matrix" values="0 0 0 0 0 0 0 0 0 0 0 0 0 0 0 0 0 0 0.1 0"/>
<feBlend mode="normal" in2="BackgroundImageFix" result="effect1_dropShadow_2160_958"/>
<feColorMatrix in="SourceAlpha" type="matrix" values="0 0 0 0 0 0 0 0 0 0 0 0 0 0 0 0 0 0 127 0" result="hardAlpha"/>
<feOffset dy="2"/>
<feGaussianBlur stdDeviation="1"/>
<feColorMatrix type="matrix" values="0 0 0 0 0 0 0 0 0 0 0 0 0 0 0 0 0 0 0.09 0"/>
<feBlend mode="normal" in2="effect1_dropShadow_2160_958" result="effect2_dropShadow_2160_958"/>
<feColorMatrix in="SourceAlpha" type="matrix" values="0 0 0 0 0 0 0 0 0 0 0 0 0 0 0 0 0 0 127 0" result="hardAlpha"/>
<feOffset dy="5"/>
<feGaussianBlur stdDeviation="1.5"/>
<feColorMatrix type="matrix" values="0 0 0 0 0 0 0 0 0 0 0 0 0 0 0 0 0 0 0.05 0"/>
<feBlend mode="normal" in2="effect2_dropShadow_2160_958" result="effect3_dropShadow_2160_958"/>
<feColorMatrix in="SourceAlpha" type="matrix" values="0 0 0 0 0 0 0 0 0 0 0 0 0 0 0 0 0 0 127 0" result="hardAlpha"/>
<feOffset dy="10"/>
<feGaussianBlur stdDeviation="2"/>
<feColorMatrix type="matrix" values="0 0 0 0 0 0 0 0 0 0 0 0 0 0 0 0 0 0 0.01 0"/>
<feBlend mode="normal" in2="effect3_dropShadow_2160_958" result="effect4_dropShadow_2160_958"/>
<feBlend mode="normal" in="SourceGraphic" in2="effect4_dropShadow_2160_958" result="shape"/>
</filter>
<linearGradient id="paint0_linear_2160_958" x1="24.9919" y1="10.4214" x2="65.4257" y2="135.078" gradientUnits="userSpaceOnUse">
<stop offset="0.0996678" stop-color="#C5E4FF"/>
<stop offset="0.623265" stop-color="#69B7FC"/>
</linearGradient>
<radialGradient id="paint1_radial_2160_958" cx="0" cy="0" r="1" gradientUnits="userSpaceOnUse" gradientTransform="translate(16.6129 28.7022) rotate(48.6382) scale(101.338 200.866)">
<stop offset="0.00520833" stop-color="#68B6FC"/>
<stop offset="0.33" stop-color="#3082F1"/>
<stop offset="0.675" stop-color="#1152D4"/>
<stop offset="1" stop-color="#0E45BD"/>
</radialGradient>
<linearGradient id="paint2_linear_2160_958" x1="57.9435" y1="130.388" x2="-3.70946" y2="77.3144" gradientUnits="userSpaceOnUse">
<stop offset="0.4598" stop-color="#1152D4"/>
<stop offset="0.6156" stop-color="#0D3FB3"/>
</linearGradient>
<linearGradient id="paint3_linear_2160_958" x1="33.8129" y1="108.174" x2="-25.9493" y2="56.4412" gradientUnits="userSpaceOnUse">
<stop offset="0.4598" stop-color="#1152D4"/>
<stop offset="0.6156" stop-color="#0D3FB3"/>
</linearGradient>
<linearGradient id="paint4_linear_2160_958" x1="75.0662" y1="31.1938" x2="71.9035" y2="38.9805" gradientUnits="userSpaceOnUse">
<stop offset="0.4598" stop-color="#1152D4"/>
<stop offset="0.6156" stop-color="#0D3FB3"/>
</linearGradient>
<linearGradient id="paint5_linear_2160_958" x1="24.9919" y1="10.4214" x2="65.4257" y2="135.078" gradientUnits="userSpaceOnUse">
<stop offset="0.0996678" stop-color="#C5E4FF"/>
<stop offset="0.623265" stop-color="#69B7FC"/>
</linearGradient>
<linearGradient id="paint6_linear_2160_958" x1="15.2935" y1="12.1478" x2="82.836" y2="99.5455" gradientUnits="userSpaceOnUse">
<stop stop-color="#3183F1"/>
<stop offset="0.915361" stop-color="#0F46BF"/>
</linearGradient>
<radialGradient id="paint7_radial_2160_958" cx="0" cy="0" r="1" gradientUnits="userSpaceOnUse" gradientTransform="translate(40.6344 21.4097) rotate(86.1564) scale(79.5145 156.959)">
<stop offset="0.00520833" stop-color="#68B6FC"/>
<stop offset="0.33" stop-color="#3082F1"/>
<stop offset="0.675" stop-color="#1152D4"/>
<stop offset="1" stop-color="#0E45BD"/>
</radialGradient>
<radialGradient id="paint8_radial_2160_958" cx="0" cy="0" r="1" gradientUnits="userSpaceOnUse" gradientTransform="translate(40.6344 21.4097) rotate(86.1564) scale(79.5145 156.959)">
<stop offset="0.00520833" stop-color="#68B6FC"/>
<stop offset="0.33" stop-color="#3082F1"/>
<stop offset="0.675" stop-color="#1152D4"/>
<stop offset="1" stop-color="#0E45BD"/>
</radialGradient>
<linearGradient id="paint9_linear_2160_958" x1="58.6959" y1="22.8722" x2="68.3858" y2="22.9823" gradientUnits="userSpaceOnUse">
<stop stop-color="#F0C70A"/>
<stop offset="0.335" stop-color="#3BA998"/>
<stop offset="0.675" stop-color="#0E91E2"/>
<stop offset="0.95" stop-color="#24ADF5"/>
</linearGradient>
<linearGradient id="paint10_linear_2160_958" x1="57.9252" y1="26.505" x2="69.9273" y2="26.8354" gradientUnits="userSpaceOnUse">
<stop stop-color="#FFAD55"/>
<stop offset="0.305" stop-color="#F77579"/>
<stop offset="0.625" stop-color="#E056A0"/>
<stop offset="1" stop-color="#B66FF0"/>
</linearGradient>
<linearGradient id="paint11_linear_2160_958" x1="38.6971" y1="34.7581" x2="64.7869" y2="90.1652" gradientUnits="userSpaceOnUse">
<stop stop-color="#007ED8"/>
<stop offset="0.7065" stop-color="#002D4C"/>
</linearGradient>
<clipPath id="clip0_2160_958">
<rect width="102" height="102" fill="white" transform="translate(0 0.879883)"/>
</clipPath>
</defs>
</svg>
